<svg width="368" height="591" viewBox="0 0 368 591" fill="none" xmlns="http://www.w3.org/2000/svg">
<rect x="33" y="223" width="303" height="368" rx="20" fill="#7F2BC1"/>
<g filter="url(#filter0_d)">
<circle cx="184" cy="180" r="180" fill="white"/>
</g>
<g clip-path="url(#clip0)">
<path d="M168.066 238.815C159.278 238.815 152.127 245.966 152.127 254.753C152.127 263.54 159.278 270.691 168.066 270.691C176.853 270.691 184.004 263.54 184.004 254.753C184.004 245.966 176.853 238.815 168.066 238.815ZM168.066 260.066C165.133 260.066 162.753 257.686 162.753 254.753C162.753 251.82 165.133 249.44 168.066 249.44C170.998 249.44 173.378 251.82 173.378 254.753C173.378 257.686 170.998 260.066 168.066 260.066Z" fill="#7F2BC1"/>
<path d="M231.819 238.815C223.031 238.815 215.88 245.966 215.88 254.753C215.88 263.54 223.031 270.691 231.819 270.691C240.606 270.691 247.757 263.54 247.757 254.753C247.757 245.966 240.606 238.815 231.819 238.815ZM231.819 260.066C228.886 260.066 226.506 257.686 226.506 254.753C226.506 251.82 228.886 249.44 231.819 249.44C234.751 249.44 237.131 251.82 237.131 254.753C237.131 257.686 234.751 260.066 231.819 260.066Z" fill="#7F2BC1"/>
<path d="M267.765 134.472C266.766 133.261 265.268 132.56 263.695 132.56H138.824L134.202 115.251C133.586 112.924 131.482 111.309 129.07 111.309H104.313C101.38 111.309 99 113.689 99 116.621C99 119.554 101.38 121.934 104.313 121.934H124.99L152.308 224.247C152.924 226.574 155.028 228.189 157.44 228.189H242.444C245.377 228.189 247.757 225.809 247.757 222.876C247.757 219.944 245.377 217.564 242.444 217.564H161.52L158.407 205.897L253.303 201.625C255.779 201.509 257.851 199.702 258.287 197.269L268.912 138.829C269.199 137.277 268.774 135.684 267.765 134.472ZM248.607 191.202L155.591 195.388L141.661 143.185H257.331L248.607 191.202Z" fill="#7F2BC1"/>
<path d="M231.819 153.811C228.886 153.811 226.506 156.191 226.506 159.123V180.374C226.506 183.307 228.886 185.687 231.819 185.687C234.751 185.687 237.131 183.307 237.131 180.374V159.123C237.131 156.191 234.751 153.811 231.819 153.811Z" fill="#7F2BC1"/>
<path d="M199.942 153.811C197.01 153.811 194.629 156.191 194.629 159.123V180.374C194.629 183.307 197.01 185.687 199.942 185.687C202.875 185.687 205.255 183.307 205.255 180.374V159.123C205.255 156.191 202.875 153.811 199.942 153.811Z" fill="#7F2BC1"/>
<path d="M168.066 153.811C165.133 153.811 162.753 156.191 162.753 159.123V180.374C162.753 183.307 165.133 185.687 168.066 185.687C170.998 185.687 173.378 183.307 173.378 180.374V159.123C173.378 156.191 170.998 153.811 168.066 153.811Z" fill="#7F2BC1"/>
</g>
<defs>
<filter id="filter0_d" x="0" y="0" width="368" height="372" filterUnits="userSpaceOnUse" color-interpolation-filters="sRGB">
<feFlood flood-opacity="0" result="BackgroundImageFix"/>
<feColorMatrix in="SourceAlpha" type="matrix" values="0 0 0 0 0 0 0 0 0 0 0 0 0 0 0 0 0 0 127 0"/>
<feOffset dy="8"/>
<feGaussianBlur stdDeviation="2"/>
<feColorMatrix type="matrix" values="0 0 0 0 0 0 0 0 0 0 0 0 0 0 0 0 0 0 0.25 0"/>
<feBlend mode="normal" in2="BackgroundImageFix" result="effect1_dropShadow"/>
<feBlend mode="normal" in="SourceGraphic" in2="effect1_dropShadow" result="shape"/>
</filter>
<clipPath id="clip0">
<rect width="170" height="170" fill="white" transform="translate(99 106)"/>
</clipPath>
</defs>
</svg>
