<svg width="368" height="591" viewBox="0 0 368 591" fill="none" xmlns="http://www.w3.org/2000/svg">
<rect x="33" y="223" width="303" height="368" rx="20" fill="#7F2BC1"/>
<g filter="url(#filter0_d)">
<circle cx="184" cy="180" r="180" fill="white"/>
</g>
<g clip-path="url(#clip0)">
<path d="M270.821 207.845C267.948 191.666 257.211 178.675 243.053 172.649C249.336 167.38 253.349 159.402 253.349 150.489C253.349 134.658 240.696 121.779 225.141 121.779C209.587 121.779 196.933 134.657 196.933 150.489C196.933 159.407 200.95 167.388 207.239 172.658C204.892 173.659 202.618 174.854 200.447 176.247C194.973 179.757 190.3 184.379 186.699 189.793C183.034 187.358 179.092 185.332 174.937 183.778C183.867 177.322 189.706 166.707 189.706 154.729C189.706 135.099 174.026 119.129 154.754 119.129C135.481 119.129 119.801 135.099 119.801 154.729C119.801 166.707 125.64 177.322 134.57 183.778C115.565 190.888 100.989 207.796 97.2084 229.084C96.5101 233.02 97.5828 237.035 100.149 240.099C102.691 243.132 106.4 244.871 110.326 244.871H199.181C203.107 244.871 206.816 243.132 209.358 240.099C211.926 237.035 212.997 233.02 212.299 229.084C211.833 226.458 211.201 223.9 210.419 221.419H259.532C262.911 221.419 266.105 219.922 268.293 217.312C270.5 214.679 271.421 211.228 270.821 207.845ZM207.128 150.489C207.128 140.279 215.209 131.974 225.141 131.974C235.073 131.974 243.154 140.279 243.154 150.489C243.154 160.697 235.073 169.002 225.141 169.002C215.209 169.002 207.128 160.697 207.128 150.489ZM129.997 154.729C129.997 140.721 141.103 129.324 154.754 129.324C168.404 129.324 179.512 140.721 179.512 154.729C179.512 168.737 168.404 180.134 154.754 180.134C141.103 180.134 129.997 168.737 129.997 154.729ZM201.544 233.55C201.191 233.971 200.416 234.676 199.181 234.676H110.326C109.091 234.676 108.316 233.971 107.963 233.55C107.596 233.112 107.015 232.18 107.247 230.866C111.418 207.378 131.397 190.329 154.754 190.329C178.11 190.329 198.09 207.378 202.26 230.866C202.494 232.18 201.912 233.112 201.544 233.55ZM260.479 210.763C260.335 210.936 260.02 211.224 259.533 211.224H206.134C203.118 205.573 199.244 200.503 194.7 196.178C201.34 185.615 212.689 179.198 225.141 179.198C242.663 179.198 257.651 191.995 260.782 209.628C260.88 210.184 260.635 210.579 260.479 210.763Z" fill="#7F2BC1"/>
</g>
<defs>
<filter id="filter0_d" x="0" y="0" width="368" height="372" filterUnits="userSpaceOnUse" color-interpolation-filters="sRGB">
<feFlood flood-opacity="0" result="BackgroundImageFix"/>
<feColorMatrix in="SourceAlpha" type="matrix" values="0 0 0 0 0 0 0 0 0 0 0 0 0 0 0 0 0 0 127 0"/>
<feOffset dy="8"/>
<feGaussianBlur stdDeviation="2"/>
<feColorMatrix type="matrix" values="0 0 0 0 0 0 0 0 0 0 0 0 0 0 0 0 0 0 0.25 0"/>
<feBlend mode="normal" in2="BackgroundImageFix" result="effect1_dropShadow"/>
<feBlend mode="normal" in="SourceGraphic" in2="effect1_dropShadow" result="shape"/>
</filter>
<clipPath id="clip0">
<rect width="174" height="174" fill="white" transform="translate(97 95)"/>
</clipPath>
</defs>
</svg>
