<svg width="70" height="70" viewBox="0 0 70 70" fill="none" xmlns="http://www.w3.org/2000/svg">
<rect width="70" height="70" rx="20" fill="#DC4E41"/>
<path d="M11.0092 35.0714C10.8798 41.3514 15.2053 47.3445 21.1554 49.2991C26.7601 51.182 33.6511 49.7734 37.3806 44.9736C40.1036 41.6104 40.7223 37.1268 40.4276 32.9379C35.6278 32.8949 30.828 32.9093 26.0353 32.9164C26.0275 34.6263 26.0353 36.3297 26.0424 38.0396C28.9164 38.119 31.7909 38.0826 34.6648 38.1405C33.9393 40.6266 32.2867 42.9403 29.7785 43.8382C24.9357 45.9723 18.7565 43.1843 17.2327 38.104C15.3933 33.2391 18.4045 27.3684 23.3761 25.9532C26.4589 24.8686 29.6347 26.0898 32.2724 27.6924C33.6088 26.4418 34.8594 25.1054 36.0878 23.7547C33.0909 21.2471 29.2397 19.7096 25.2805 20.0473C17.5125 20.1397 10.7145 27.3111 11.0092 35.0714Z" fill="#DC4E41"/>
<path d="M49.7689 28.6035C49.7546 30.0336 49.7397 31.4709 49.7325 32.9004C48.2952 32.9147 46.8658 32.9219 45.4356 32.929C45.4356 34.3591 45.4356 35.7815 45.4356 37.2116C46.8658 37.2187 48.303 37.2259 49.7325 37.2409C49.7468 38.671 49.7468 40.1004 49.7611 41.5377C51.1841 41.5377 52.6142 41.5306 54.0437 41.5377C54.0515 40.1004 54.058 38.671 54.073 37.2337C55.5025 37.2265 56.9397 37.2194 58.3698 37.2122C58.3698 35.7821 58.3698 34.3598 58.3698 32.9297C56.9404 32.9225 55.5031 32.9154 54.073 32.901C54.0652 31.4709 54.0515 30.0336 54.0437 28.6042C52.6142 28.6035 51.1913 28.6035 49.7689 28.6035Z" fill="#DC4E41"/>
<path d="M11.0092 35.071C10.7145 27.3108 17.5118 20.1393 25.2799 20.0463C29.2391 19.7086 33.0909 21.2461 36.0871 23.7537C34.8581 25.1051 33.6075 26.4409 32.2717 27.6914C29.634 26.0889 26.4582 24.8676 23.3754 25.9522C18.4032 27.368 15.392 33.2388 17.232 38.103C18.7558 43.1833 24.935 45.9713 29.7778 43.8372C32.2854 42.9393 33.9387 40.6256 34.6642 38.1395C31.7903 38.0822 28.9157 38.118 26.0418 38.0386C26.0346 36.3287 26.0275 34.6253 26.0346 32.9154C30.8273 32.9083 35.6271 32.894 40.4269 32.9369C40.7217 37.1264 40.1036 41.61 37.38 44.9726C33.6505 49.7724 26.7601 51.1811 21.1548 49.2981C15.2059 47.3442 10.8798 41.3511 11.0092 35.071Z" fill="white"/>
<path d="M49.7689 28.6035C51.1919 28.6035 52.6142 28.6035 54.0437 28.6035C54.0515 30.0336 54.0652 31.4709 54.073 32.9004C55.5025 32.9147 56.9397 32.9219 58.3698 32.929C58.3698 34.3591 58.3698 35.7815 58.3698 37.2116C56.9404 37.2187 55.5031 37.2259 54.073 37.233C54.0587 38.6703 54.0515 40.0998 54.0437 41.5371C52.6142 41.5299 51.1835 41.5371 49.7611 41.5371C49.7475 40.0998 49.7475 38.6703 49.7325 37.2402C48.303 37.2252 46.8658 37.2187 45.4356 37.2109C45.4356 35.7808 45.4356 34.3585 45.4356 32.9284C46.8658 32.9212 48.2959 32.9141 49.7325 32.8997C49.7397 31.4709 49.754 30.0336 49.7689 28.6035Z" fill="white"/>
</svg>
