<svg width="16" height="15" viewBox="0 0 16 15" fill="none" xmlns="http://www.w3.org/2000/svg">
<path d="M14.6381 2.15872H11.1291V1.64988C11.1291 0.740132 10.2969 0 9.27402 0H5.93838C4.91549 0 4.08332 0.740132 4.08332 1.64988V2.15872H0.574301C0.314246 2.15872 0.106201 2.34375 0.106201 2.57504C0.106201 2.80633 0.314246 2.99137 0.574301 2.99137H1.42035V12.7734C1.42035 14.0008 2.54379 15 3.92382 15H11.2886C12.6686 15 13.7921 14.0008 13.7921 12.7734V2.99137H14.6381C14.8982 2.99137 15.1062 2.80633 15.1062 2.57504C15.1062 2.34375 14.8982 2.15872 14.6381 2.15872ZM5.01952 1.64988C5.01952 1.19963 5.43214 0.832648 5.93838 0.832648H9.27402C9.78026 0.832648 10.1929 1.19963 10.1929 1.64988V2.15872H5.01952V1.64988ZM12.8559 12.7734C12.8559 13.5413 12.152 14.1674 11.2886 14.1674H3.92382C3.06043 14.1674 2.35655 13.5413 2.35655 12.7734V2.99137H12.8593V12.7734H12.8559Z" fill="white"/>
<path d="M7.60629 12.6747C7.86634 12.6747 8.07439 12.4897 8.07439 12.2584V4.90027C8.07439 4.66898 7.86634 4.48395 7.60629 4.48395C7.34623 4.48395 7.13818 4.66898 7.13818 4.90027V12.2553C7.13818 12.4866 7.34623 12.6747 7.60629 12.6747Z" fill="white"/>
<path d="M4.55135 12.2152C4.81141 12.2152 5.01945 12.0302 5.01945 11.7989V5.35669C5.01945 5.1254 4.81141 4.94037 4.55135 4.94037C4.2913 4.94037 4.08325 5.1254 4.08325 5.35669V11.7989C4.08325 12.0302 4.29476 12.2152 4.55135 12.2152Z" fill="white"/>
<path d="M10.661 12.2152C10.921 12.2152 11.1291 12.0302 11.1291 11.7989V5.35669C11.1291 5.1254 10.921 4.94037 10.661 4.94037C10.4009 4.94037 10.1929 5.1254 10.1929 5.35669V11.7989C10.1929 12.0302 10.4009 12.2152 10.661 12.2152Z" fill="white"/>
</svg>
