<svg width="20" height="20" viewBox="0 0 20 20" fill="none" xmlns="http://www.w3.org/2000/svg">
<path d="M18.3389 2.87829H14.1777V2.19984C14.1777 0.986842 13.1909 0 11.9779 0H8.02232C6.80933 0 5.82248 0.986842 5.82248 2.19984V2.87829H1.6613C1.35291 2.87829 1.1062 3.125 1.1062 3.43339C1.1062 3.74178 1.35291 3.98849 1.6613 3.98849H2.66459V17.0312C2.66459 18.6678 3.99683 20 5.63334 20H14.3669C16.0034 20 17.3356 18.6678 17.3356 17.0312V3.98849H18.3389C18.6473 3.98849 18.894 3.74178 18.894 3.43339C18.894 3.125 18.6473 2.87829 18.3389 2.87829ZM6.93268 2.19984C6.93268 1.59951 7.42199 1.1102 8.02232 1.1102H11.9779C12.5782 1.1102 13.0675 1.59951 13.0675 2.19984V2.87829H6.93268V2.19984ZM16.2254 17.0312C16.2254 18.0551 15.3907 18.8898 14.3669 18.8898H5.63334C4.60949 18.8898 3.77479 18.0551 3.77479 17.0312V3.98849H16.2296V17.0312H16.2254Z" fill="white"/>
<path d="M10.0002 16.8996C10.3086 16.8996 10.5553 16.6529 10.5553 16.3445V6.53368C10.5553 6.22529 10.3086 5.97858 10.0002 5.97858C9.69178 5.97858 9.44507 6.22529 9.44507 6.53368V16.3404C9.44507 16.6488 9.69178 16.8996 10.0002 16.8996Z" fill="white"/>
<path d="M6.37761 16.287C6.686 16.287 6.93271 16.0403 6.93271 15.7319V7.14226C6.93271 6.83387 6.686 6.58716 6.37761 6.58716C6.06922 6.58716 5.82251 6.83387 5.82251 7.14226V15.7319C5.82251 16.0403 6.07333 16.287 6.37761 16.287Z" fill="white"/>
<path d="M13.6227 16.287C13.9311 16.287 14.1778 16.0403 14.1778 15.7319V7.14226C14.1778 6.83387 13.9311 6.58716 13.6227 6.58716C13.3143 6.58716 13.0676 6.83387 13.0676 7.14226V15.7319C13.0676 16.0403 13.3143 16.287 13.6227 16.287Z" fill="white"/>
</svg>
