<svg width="238" height="223" viewBox="0 0 238 223" fill="none" xmlns="http://www.w3.org/2000/svg">
<path d="M218.087 99.1809H19.913C17.837 99.1809 16.1552 100.758 16.1552 102.702V211.951C16.1552 213.896 17.837 215.472 19.913 215.472H218.087C220.163 215.472 221.845 213.896 221.845 211.951V102.702C221.845 100.757 220.163 99.1809 218.087 99.1809Z" fill="#7F2BC1"/>
<path d="M218.087 99.1809H19.913C17.837 99.1809 16.1552 100.758 16.1552 102.702V116.786H221.845V102.702C221.845 100.757 220.163 99.1809 218.087 99.1809Z" fill="#5D208D"/>
<path d="M138.198 99.1809H99.8029C97.7269 99.1809 96.0451 100.758 96.0451 102.702V211.951C96.0451 213.896 97.7269 215.472 99.8029 215.472H138.198C140.274 215.472 141.956 213.896 141.956 211.951V102.702C141.956 100.757 140.273 99.1809 138.198 99.1809Z" fill="#FFDB57"/>
<path d="M138.198 99.1809H99.8029C97.7269 99.1809 96.0451 100.758 96.0451 102.702V116.711H141.956V102.702C141.956 100.757 140.273 99.1809 138.198 99.1809Z" fill="#F5BA3D"/>
<path d="M210.766 34.1373C207.081 25.1385 201.268 16.3496 195.214 10.6261C192.992 8.52629 190.001 7.46182 186.596 7.5302C175.314 7.77628 156.928 21.0444 131.951 46.9655C131.327 47.6123 130.981 48.4533 130.981 49.3253V67.9497C130.981 69.8944 132.663 71.4707 134.739 71.4707H192.544C205.424 71.4707 210.74 65.5995 212.931 60.6739C215.853 54.108 215.084 44.6832 210.766 34.1373Z" fill="#FFDB57"/>
<path d="M212.918 40.2724C212.812 39.9109 212.647 39.5672 212.426 39.2549C206.751 31.2161 194.49 34.2239 185.204 38.1626C158.225 49.6053 147.084 65.3673 146.622 66.0324C145.872 67.1156 145.814 68.4958 146.472 69.6304C147.129 70.765 148.396 71.471 149.774 71.471H192.545C200.741 71.471 206.819 69.1139 210.61 64.4653C215.114 58.9425 215.912 50.5765 212.918 40.2724Z" fill="#EF9325"/>
<path d="M106.049 46.9659C81.0715 21.0448 62.686 7.77669 51.4034 7.5306C47.9895 7.46179 45.0066 8.5267 42.7856 10.6265C36.7324 16.3496 30.9182 25.1389 27.2338 34.1377C22.9159 44.6836 22.1466 54.108 25.0676 60.6747C27.2589 65.6003 32.5744 71.4715 45.4548 71.4715H103.259C105.335 71.4715 107.017 69.8948 107.017 67.9505V49.3257C107.018 48.4537 106.673 47.6127 106.049 46.9659Z" fill="#FFDB57"/>
<path d="M91.378 66.0324C90.9169 65.3673 79.7756 49.6049 52.7965 38.1626C43.5094 34.224 31.2487 31.2174 25.5743 39.2545C25.354 39.5673 25.188 39.9105 25.083 40.2724C22.088 50.5766 22.8866 58.9426 27.3905 64.4649C31.1813 69.1135 37.2591 71.4706 45.4552 71.4706H88.2264C89.6042 71.4706 90.8714 70.7646 91.5286 69.63C92.1859 68.4958 92.1283 67.1156 91.378 66.0324Z" fill="#EF9325"/>
<path d="M134.74 42.3242H103.26C101.184 42.3242 99.5021 43.9009 99.5021 45.8452V67.9505C99.5021 69.8952 101.184 71.4714 103.26 71.4714H134.74C136.816 71.4714 138.498 69.8948 138.498 67.9505V45.8452C138.498 43.9005 136.816 42.3242 134.74 42.3242Z" fill="#F5BA3D"/>
<path d="M234.242 64.4362H3.7578C1.6818 64.4362 0 66.0128 0 67.9571V102.702C0 104.647 1.6818 106.223 3.7578 106.223H234.242C236.318 106.223 238 104.646 238 102.702V67.9571C238 66.0124 236.318 64.4362 234.242 64.4362Z" fill="#7F2BC1"/>
<path d="M147.865 64.4348H90.1341V106.222H147.865V64.4348Z" fill="#FFDB57"/>
</svg>
