<svg width="183" height="354" viewBox="0 0 183 354" fill="none" xmlns="http://www.w3.org/2000/svg">
<rect x="13" y="158" width="27" height="138" fill="#9454C7"/>
<rect x="143" width="27" height="296" fill="#5D208D"/>
<rect x="78" y="135" width="27" height="161" fill="#7F2BC1"/>
<path d="M142.528 345.896V347H130.984V346.136L138.088 339.08C139.016 338.152 139.64 337.36 139.96 336.704C140.296 336.032 140.464 335.344 140.464 334.64C140.464 333.568 140.096 332.728 139.36 332.12C138.64 331.512 137.592 331.208 136.216 331.208C135.16 331.208 134.232 331.368 133.432 331.688C132.648 332.008 131.968 332.496 131.392 333.152L130.528 332.384C131.168 331.648 131.976 331.08 132.952 330.68C133.944 330.28 135.064 330.08 136.312 330.08C137.96 330.08 139.272 330.48 140.248 331.28C141.224 332.08 141.712 333.16 141.712 334.52C141.712 335.384 141.52 336.208 141.136 336.992C140.752 337.776 140.032 338.688 138.976 339.728L132.784 345.896H142.528ZM151.326 347.12C150.046 347.12 148.902 346.776 147.894 346.088C146.902 345.384 146.126 344.392 145.566 343.112C145.022 341.832 144.75 340.328 144.75 338.6C144.75 336.872 145.022 335.368 145.566 334.088C146.126 332.808 146.902 331.824 147.894 331.136C148.902 330.432 150.046 330.08 151.326 330.08C152.606 330.08 153.742 330.432 154.734 331.136C155.742 331.824 156.518 332.808 157.062 334.088C157.622 335.368 157.902 336.872 157.902 338.6C157.902 340.328 157.622 341.832 157.062 343.112C156.518 344.392 155.742 345.384 154.734 346.088C153.742 346.776 152.606 347.12 151.326 347.12ZM151.326 345.992C152.382 345.992 153.31 345.704 154.11 345.128C154.926 344.536 155.558 343.688 156.006 342.584C156.454 341.464 156.678 340.136 156.678 338.6C156.678 337.064 156.454 335.744 156.006 334.64C155.558 333.52 154.926 332.672 154.11 332.096C153.31 331.504 152.382 331.208 151.326 331.208C150.27 331.208 149.334 331.504 148.518 332.096C147.718 332.672 147.094 333.52 146.646 334.64C146.198 335.744 145.974 337.064 145.974 338.6C145.974 340.136 146.198 341.464 146.646 342.584C147.094 343.688 147.718 344.536 148.518 345.128C149.334 345.704 150.27 345.992 151.326 345.992ZM164.747 330.2V347H163.523V331.304H159.419V330.2H164.747ZM174.048 330.08C176.224 330.08 177.888 330.824 179.04 332.312C180.208 333.784 180.792 335.848 180.792 338.504C180.792 340.36 180.48 341.936 179.856 343.232C179.248 344.512 178.384 345.48 177.264 346.136C176.144 346.792 174.832 347.12 173.328 347.12C171.744 347.12 170.472 346.832 169.512 346.256L170.016 345.272C170.816 345.784 171.92 346.04 173.328 346.04C175.264 346.04 176.784 345.416 177.888 344.168C179.008 342.904 179.568 341.08 179.568 338.696C179.568 337.96 179.52 337.288 179.424 336.68C179.088 337.768 178.432 338.616 177.456 339.224C176.496 339.832 175.368 340.136 174.072 340.136C172.968 340.136 171.984 339.936 171.12 339.536C170.272 339.12 169.616 338.536 169.152 337.784C168.688 337.016 168.456 336.136 168.456 335.144C168.456 334.136 168.696 333.248 169.176 332.48C169.656 331.712 170.32 331.12 171.168 330.704C172.016 330.288 172.976 330.08 174.048 330.08ZM174.24 339.08C175.136 339.08 175.936 338.904 176.64 338.552C177.36 338.2 177.912 337.72 178.296 337.112C178.696 336.504 178.896 335.824 178.896 335.072C178.896 334.4 178.704 333.76 178.32 333.152C177.952 332.544 177.408 332.056 176.688 331.688C175.968 331.32 175.104 331.136 174.096 331.136C172.784 331.136 171.72 331.504 170.904 332.24C170.088 332.96 169.68 333.92 169.68 335.12C169.68 336.32 170.088 337.28 170.904 338C171.72 338.72 172.832 339.08 174.24 339.08Z" fill="black"/>
<path d="M77.528 345.896V347H65.984V346.136L73.088 339.08C74.016 338.152 74.64 337.36 74.96 336.704C75.296 336.032 75.464 335.344 75.464 334.64C75.464 333.568 75.096 332.728 74.36 332.12C73.64 331.512 72.592 331.208 71.216 331.208C70.16 331.208 69.232 331.368 68.432 331.688C67.648 332.008 66.968 332.496 66.392 333.152L65.528 332.384C66.168 331.648 66.976 331.08 67.952 330.68C68.944 330.28 70.064 330.08 71.312 330.08C72.96 330.08 74.272 330.48 75.248 331.28C76.224 332.08 76.712 333.16 76.712 334.52C76.712 335.384 76.52 336.208 76.136 336.992C75.752 337.776 75.032 338.688 73.976 339.728L67.784 345.896H77.528ZM86.3257 347.12C85.0457 347.12 83.9017 346.776 82.8937 346.088C81.9017 345.384 81.1257 344.392 80.5657 343.112C80.0217 341.832 79.7497 340.328 79.7497 338.6C79.7497 336.872 80.0217 335.368 80.5657 334.088C81.1257 332.808 81.9017 331.824 82.8937 331.136C83.9017 330.432 85.0457 330.08 86.3257 330.08C87.6057 330.08 88.7417 330.432 89.7337 331.136C90.7417 331.824 91.5177 332.808 92.0617 334.088C92.6217 335.368 92.9017 336.872 92.9017 338.6C92.9017 340.328 92.6217 341.832 92.0617 343.112C91.5177 344.392 90.7417 345.384 89.7337 346.088C88.7417 346.776 87.6057 347.12 86.3257 347.12ZM86.3257 345.992C87.3817 345.992 88.3097 345.704 89.1097 345.128C89.9257 344.536 90.5577 343.688 91.0057 342.584C91.4537 341.464 91.6777 340.136 91.6777 338.6C91.6777 337.064 91.4537 335.744 91.0057 334.64C90.5577 333.52 89.9257 332.672 89.1097 332.096C88.3097 331.504 87.3817 331.208 86.3257 331.208C85.2697 331.208 84.3337 331.504 83.5177 332.096C82.7177 332.672 82.0937 333.52 81.6457 334.64C81.1977 335.744 80.9737 337.064 80.9737 338.6C80.9737 340.136 81.1977 341.464 81.6457 342.584C82.0937 343.688 82.7177 344.536 83.5177 345.128C84.3337 345.704 85.2697 345.992 86.3257 345.992ZM99.7471 330.2V347H98.5231V331.304H94.4191V330.2H99.7471ZM112.984 338.216C114.136 338.52 115.024 339.032 115.648 339.752C116.288 340.472 116.608 341.352 116.608 342.392C116.608 343.864 116.04 345.024 114.904 345.872C113.768 346.704 112.208 347.12 110.224 347.12C108.256 347.12 106.704 346.704 105.568 345.872C104.448 345.024 103.888 343.864 103.888 342.392C103.888 341.336 104.192 340.456 104.8 339.752C105.424 339.032 106.312 338.52 107.464 338.216C106.504 337.896 105.768 337.416 105.256 336.776C104.744 336.136 104.488 335.352 104.488 334.424C104.488 333.08 105.008 332.024 106.048 331.256C107.088 330.472 108.48 330.08 110.224 330.08C111.968 330.08 113.368 330.472 114.424 331.256C115.48 332.04 116.008 333.096 116.008 334.424C116.008 335.336 115.744 336.12 115.216 336.776C114.704 337.416 113.96 337.896 112.984 338.216ZM105.712 334.448C105.712 335.456 106.104 336.256 106.888 336.848C107.688 337.44 108.8 337.736 110.224 337.736C111.648 337.736 112.76 337.448 113.56 336.872C114.376 336.28 114.784 335.48 114.784 334.472C114.784 333.448 114.368 332.64 113.536 332.048C112.72 331.44 111.616 331.136 110.224 331.136C108.832 331.136 107.728 331.432 106.912 332.024C106.112 332.616 105.712 333.424 105.712 334.448ZM110.224 346.064C111.84 346.064 113.104 345.736 114.016 345.08C114.928 344.424 115.384 343.528 115.384 342.392C115.384 341.272 114.928 340.384 114.016 339.728C113.104 339.072 111.84 338.744 110.224 338.744C108.624 338.744 107.368 339.072 106.456 339.728C105.56 340.384 105.112 341.272 105.112 342.392C105.112 343.528 105.56 344.424 106.456 345.08C107.352 345.736 108.608 346.064 110.224 346.064Z" fill="black"/>
<path d="M12.528 345.896V347H0.984V346.136L8.088 339.08C9.016 338.152 9.64 337.36 9.96 336.704C10.296 336.032 10.464 335.344 10.464 334.64C10.464 333.568 10.096 332.728 9.36 332.12C8.64 331.512 7.592 331.208 6.216 331.208C5.16 331.208 4.232 331.368 3.432 331.688C2.648 332.008 1.968 332.496 1.392 333.152L0.528 332.384C1.168 331.648 1.976 331.08 2.952 330.68C3.944 330.28 5.064 330.08 6.312 330.08C7.96 330.08 9.272 330.48 10.248 331.28C11.224 332.08 11.712 333.16 11.712 334.52C11.712 335.384 11.52 336.208 11.136 336.992C10.752 337.776 10.032 338.688 8.976 339.728L2.784 345.896H12.528ZM21.3257 347.12C20.0457 347.12 18.9017 346.776 17.8937 346.088C16.9017 345.384 16.1257 344.392 15.5657 343.112C15.0217 341.832 14.7497 340.328 14.7497 338.6C14.7497 336.872 15.0217 335.368 15.5657 334.088C16.1257 332.808 16.9017 331.824 17.8937 331.136C18.9017 330.432 20.0457 330.08 21.3257 330.08C22.6057 330.08 23.7417 330.432 24.7337 331.136C25.7417 331.824 26.5177 332.808 27.0617 334.088C27.6217 335.368 27.9017 336.872 27.9017 338.6C27.9017 340.328 27.6217 341.832 27.0617 343.112C26.5177 344.392 25.7417 345.384 24.7337 346.088C23.7417 346.776 22.6057 347.12 21.3257 347.12ZM21.3257 345.992C22.3817 345.992 23.3097 345.704 24.1097 345.128C24.9257 344.536 25.5577 343.688 26.0057 342.584C26.4537 341.464 26.6777 340.136 26.6777 338.6C26.6777 337.064 26.4537 335.744 26.0057 334.64C25.5577 333.52 24.9257 332.672 24.1097 332.096C23.3097 331.504 22.3817 331.208 21.3257 331.208C20.2697 331.208 19.3337 331.504 18.5177 332.096C17.7177 332.672 17.0937 333.52 16.6457 334.64C16.1977 335.744 15.9737 337.064 15.9737 338.6C15.9737 340.136 16.1977 341.464 16.6457 342.584C17.0937 343.688 17.7177 344.536 18.5177 345.128C19.3337 345.704 20.2697 345.992 21.3257 345.992ZM34.7471 330.2V347H33.5231V331.304H29.4191V330.2H34.7471ZM50.5281 330.2V331.064L43.3041 347H41.9601L49.1121 331.304H39.6801V334.52H38.4801V330.2H50.5281Z" fill="black"/>
</svg>
