<svg width="50" height="50" viewBox="0 0 50 50" fill="none" xmlns="http://www.w3.org/2000/svg">
<path d="M42.6758 0H7.32422C3.28598 0 0 3.28598 0 7.32422V42.6758C0 46.714 3.28598 50 7.32422 50H42.6758C46.714 50 50 46.714 50 42.6758V7.32422C50 3.28598 46.714 0 42.6758 0ZM25.0977 38.0859C17.828 38.0859 11.9141 32.172 11.9141 24.9023C11.9141 17.6327 17.828 11.7188 25.0977 11.7188C32.3673 11.7188 38.2812 17.6327 38.2812 24.9023C38.2812 32.172 32.3673 38.0859 25.0977 38.0859ZM39.7461 14.6484C37.323 14.6484 35.3516 12.677 35.3516 10.2539C35.3516 7.83081 37.323 5.85938 39.7461 5.85938C42.1692 5.85938 44.1406 7.83081 44.1406 10.2539C44.1406 12.677 42.1692 14.6484 39.7461 14.6484Z" fill="white"/>
<path d="M39.7461 8.78906C38.9378 8.78906 38.2812 9.44557 38.2812 10.2539C38.2812 11.0622 38.9378 11.7188 39.7461 11.7188C40.5544 11.7188 41.2109 11.0622 41.2109 10.2539C41.2109 9.44557 40.5544 8.78906 39.7461 8.78906Z" fill="white"/>
<path d="M25.0977 14.6484C19.4443 14.6484 14.8438 19.249 14.8438 24.9023C14.8438 30.5557 19.4443 35.1562 25.0977 35.1562C30.751 35.1562 35.3516 30.5557 35.3516 24.9023C35.3516 19.249 30.751 14.6484 25.0977 14.6484Z" fill="white"/>
</svg>
