<svg width="60" height="60" viewBox="0 0 60 60" fill="none" xmlns="http://www.w3.org/2000/svg">
<path d="M51.2109 0H8.78906C3.94318 0 0 3.94318 0 8.78906V51.2109C0 56.0568 3.94318 60 8.78906 60H51.2109C56.0568 60 60 56.0568 60 51.2109V8.78906C60 3.94318 56.0568 0 51.2109 0ZM30.1172 45.7031C21.3936 45.7031 14.2969 38.6064 14.2969 29.8828C14.2969 21.1592 21.3936 14.0625 30.1172 14.0625C38.8408 14.0625 45.9375 21.1592 45.9375 29.8828C45.9375 38.6064 38.8408 45.7031 30.1172 45.7031ZM47.6953 17.5781C44.7876 17.5781 42.4219 15.2124 42.4219 12.3047C42.4219 9.39697 44.7876 7.03125 47.6953 7.03125C50.603 7.03125 52.9688 9.39697 52.9688 12.3047C52.9688 15.2124 50.603 17.5781 47.6953 17.5781Z" fill="white"/>
<path d="M47.6953 10.5469C46.7253 10.5469 45.9375 11.3347 45.9375 12.3047C45.9375 13.2747 46.7253 14.0625 47.6953 14.0625C48.6653 14.0625 49.4531 13.2747 49.4531 12.3047C49.4531 11.3347 48.6653 10.5469 47.6953 10.5469Z" fill="white"/>
<path d="M30.1172 17.5781C23.3331 17.5781 17.8125 23.0988 17.8125 29.8828C17.8125 36.6669 23.3331 42.1875 30.1172 42.1875C36.9012 42.1875 42.4219 36.6669 42.4219 29.8828C42.4219 23.0988 36.9012 17.5781 30.1172 17.5781Z" fill="white"/>
</svg>
