<svg width="368" height="591" viewBox="0 0 368 591" fill="none" xmlns="http://www.w3.org/2000/svg">
<rect x="33" y="223" width="303" height="368" rx="20" fill="#7F2BC1"/>
<g filter="url(#filter0_d)">
<circle cx="184" cy="180" r="180" fill="white"/>
</g>
<path d="M182.449 160.312C180.377 158.24 177.009 158.229 174.926 160.301L157.438 177.801L150.574 170.926C148.502 168.854 145.134 168.854 143.062 170.926C140.99 172.998 140.99 176.366 143.062 178.438L153.687 189.063C154.718 190.104 156.078 190.625 157.438 190.625C158.798 190.625 160.158 190.104 161.199 189.074L182.449 167.824C184.521 165.752 184.521 162.384 182.449 160.312Z" fill="#7F2BC1"/>
<path d="M182.449 202.812C180.377 200.74 177.009 200.729 174.926 202.801L157.438 220.301L150.574 213.437C148.502 211.365 145.134 211.365 143.062 213.437C140.99 215.509 140.99 218.877 143.062 220.949L153.687 231.574C154.718 232.604 156.078 233.125 157.438 233.125C158.798 233.125 160.158 232.604 161.199 231.574L182.449 210.324C184.521 208.252 184.521 204.884 182.449 202.812Z" fill="#7F2BC1"/>
<path d="M221.188 169.375H199.938C197.005 169.375 194.625 171.755 194.625 174.688C194.625 177.62 197.005 180 199.938 180H221.188C224.12 180 226.5 177.62 226.5 174.688C226.5 171.755 224.12 169.375 221.188 169.375Z" fill="#7F2BC1"/>
<path d="M221.188 211.875H199.938C197.005 211.875 194.625 214.255 194.625 217.188C194.625 220.12 197.005 222.5 199.938 222.5H221.188C224.12 222.5 226.5 220.12 226.5 217.188C226.5 214.255 224.12 211.875 221.188 211.875Z" fill="#7F2BC1"/>
<path d="M237.125 116.25H215.875V110.938C215.875 108.005 213.495 105.625 210.562 105.625H199.034C196.835 99.4412 190.927 95 184 95C177.072 95 171.165 99.4412 168.966 105.625H157.438C154.505 105.625 152.125 108.005 152.125 110.938V116.25H130.875C125.021 116.25 120.25 121.021 120.25 126.875V254.375C120.25 260.229 125.021 265 130.875 265H237.125C242.979 265 247.75 260.229 247.75 254.375V126.875C247.75 121.021 242.979 116.25 237.125 116.25ZM162.75 116.25H173.375C176.307 116.25 178.688 113.87 178.688 110.938C178.688 108.005 181.068 105.625 184 105.625C186.933 105.625 189.312 108.005 189.312 110.938C189.312 113.87 191.692 116.25 194.625 116.25H205.25V126.875H162.75V116.25ZM237.125 254.375H130.875V126.875H152.125V132.188C152.125 135.12 154.505 137.5 157.438 137.5H210.562C213.495 137.5 215.875 135.12 215.875 132.188V126.875H237.125V254.375Z" fill="#7F2BC1"/>
<defs>
<filter id="filter0_d" x="0" y="0" width="368" height="372" filterUnits="userSpaceOnUse" color-interpolation-filters="sRGB">
<feFlood flood-opacity="0" result="BackgroundImageFix"/>
<feColorMatrix in="SourceAlpha" type="matrix" values="0 0 0 0 0 0 0 0 0 0 0 0 0 0 0 0 0 0 127 0"/>
<feOffset dy="8"/>
<feGaussianBlur stdDeviation="2"/>
<feColorMatrix type="matrix" values="0 0 0 0 0 0 0 0 0 0 0 0 0 0 0 0 0 0 0.25 0"/>
<feBlend mode="normal" in2="BackgroundImageFix" result="effect1_dropShadow"/>
<feBlend mode="normal" in="SourceGraphic" in2="effect1_dropShadow" result="shape"/>
</filter>
</defs>
</svg>
