<svg width="413" height="132" viewBox="0 0 413 132" fill="none" xmlns="http://www.w3.org/2000/svg">
<g clip-path="url(#clip0)">
<path d="M92.5517 28.1855L70.1303 22.7383C69.6072 22.6066 69.0545 22.6606 68.5669 22.8911C35.5175 38.2818 4.37818 87.8317 3.06989 89.9346C2.56025 90.7497 2.59244 91.7919 3.15141 92.574C3.71355 93.3579 4.69379 93.7237 5.63199 93.5L26.8348 88.5685L31.9836 114.498C32.1888 115.575 33.1051 116.371 34.2004 116.425L34.376 116.419C35.4054 116.386 36.2954 115.692 36.5801 114.702C36.7521 114.122 53.7464 56.156 76.1127 43.5096L93.2738 32.4873C94.3772 31.7783 94.6969 30.309 93.9879 29.2056C93.6573 28.6913 93.1412 28.3241 92.5467 28.1807L92.5517 28.1855Z" fill="#FFD54F"/>
<path d="M114.409 18.9095C114.073 17.9247 113.124 17.2827 112.085 17.3373L95.4868 17.9781L89.9993 2.31413C89.4149 1.08168 87.9419 0.556268 86.7094 1.14073C86.1472 1.40734 85.7064 1.87625 85.475 2.45385L80.9549 18.4269L64.335 18.8119C63.2995 18.8207 62.3981 19.5223 62.1355 20.5239C61.8467 21.518 62.2354 22.5846 63.096 23.1601L76.8909 32.3899L72.1548 48.2934C71.7773 49.5496 72.4893 50.8739 73.7455 51.2514C74.4863 51.474 75.2893 51.322 75.8973 50.8437L88.9141 40.5767L102.568 50.02C103.647 50.7656 105.126 50.4957 105.872 49.4166C106.312 48.7802 106.414 47.9694 106.146 47.2437L100.438 31.6627L113.637 21.5992C114.451 20.9655 114.764 19.8787 114.409 18.9095Z" fill="#FFC107"/>
<path d="M33.2031 78.4405C31.8922 78.4809 30.7965 77.4509 30.756 76.14C30.7402 75.6264 30.8914 75.1214 31.1867 74.7011C32.2334 73.2005 33.4326 71.41 34.7497 69.4401C41.3405 59.5854 50.3747 46.0723 59.2442 39.9963C60.3261 39.2544 61.8047 39.5299 62.5467 40.6118C63.2887 41.6937 63.0131 43.1724 61.9312 43.9143C53.8159 49.4823 44.713 63.083 38.7092 72.0928C37.3738 74.0917 36.1566 75.9113 35.0963 77.4315C34.6621 78.0499 33.9589 78.4245 33.2031 78.4405Z" fill="#FFB300"/>
</g>
<path d="M106.296 91.664C106.296 92.9867 106.061 93.968 105.592 94.608C105.123 95.248 104.376 95.8667 103.352 96.464C102.755 96.8053 102.008 97.1467 101.112 97.488C100.216 97.7867 99.2347 98.0427 98.168 98.256C97.1013 98.512 95.9707 98.704 94.776 98.832C93.624 98.96 92.472 99.024 91.32 99.024C88.248 99.024 85.368 98.6187 82.68 97.808C79.992 96.9547 77.6453 95.696 75.64 94.032C73.6773 92.3253 72.12 90.2133 70.968 87.696C69.816 85.1787 69.24 82.256 69.24 78.928C69.24 75.4293 69.8587 72.3787 71.096 69.776C72.376 67.1733 74.04 65.0187 76.088 63.312C78.1787 61.5627 80.5467 60.2613 83.192 59.408C85.88 58.5547 88.632 58.128 91.448 58.128C95.5013 58.128 98.7013 58.7893 101.048 60.112C103.437 61.392 104.632 63.0773 104.632 65.168C104.632 66.2773 104.355 67.2373 103.8 68.048C103.245 68.8587 102.605 69.4987 101.88 69.968C100.813 69.328 99.4693 68.7093 97.848 68.112C96.2693 67.472 94.4773 67.152 92.472 67.152C88.888 67.152 86.0293 68.176 83.896 70.224C81.8053 72.272 80.76 75.1093 80.76 78.736C80.76 80.6987 81.0373 82.4053 81.592 83.856C82.1893 85.264 82.9787 86.4373 83.96 87.376C84.9413 88.272 86.072 88.9547 87.352 89.424C88.632 89.8507 89.9973 90.064 91.448 90.064C92.3867 90.064 93.2187 89.9787 93.944 89.808C94.6693 89.6373 95.224 89.4453 95.608 89.232V83.216H88.76C88.504 82.7467 88.248 82.128 87.992 81.36C87.7787 80.592 87.672 79.7813 87.672 78.928C87.672 77.392 88.0133 76.2827 88.696 75.6C89.4213 74.9173 90.3387 74.576 91.448 74.576H102.264C103.544 74.576 104.525 74.9387 105.208 75.664C105.933 76.3467 106.296 77.328 106.296 78.608V91.664ZM124.86 97.744C124.391 97.872 123.644 98 122.62 98.128C121.639 98.256 120.657 98.32 119.676 98.32C118.695 98.32 117.82 98.2347 117.052 98.064C116.327 97.936 115.708 97.68 115.196 97.296C114.684 96.912 114.3 96.3787 114.044 95.696C113.788 95.0133 113.66 94.1173 113.66 93.008V59.216C114.129 59.1307 114.876 59.024 115.9 58.896C116.924 58.7253 117.905 58.64 118.844 58.64C119.825 58.64 120.679 58.7253 121.404 58.896C122.172 59.024 122.812 59.28 123.324 59.664C123.836 60.048 124.22 60.5813 124.476 61.264C124.732 61.9467 124.86 62.8427 124.86 63.952V97.744ZM160.424 59.216C160.723 59.6853 160.979 60.3253 161.192 61.136C161.448 61.904 161.576 62.7147 161.576 63.568C161.576 65.232 161.213 66.4267 160.488 67.152C159.805 67.8347 158.867 68.176 157.672 68.176H144.232V75.408H158.248C158.589 75.8773 158.867 76.496 159.08 77.264C159.336 78.032 159.464 78.8427 159.464 79.696C159.464 81.3173 159.101 82.4907 158.376 83.216C157.693 83.8987 156.755 84.24 155.56 84.24H144.36V97.744C143.891 97.872 143.144 98 142.12 98.128C141.139 98.256 140.157 98.32 139.176 98.32C138.195 98.32 137.32 98.2347 136.552 98.064C135.827 97.936 135.208 97.68 134.696 97.296C134.184 96.912 133.8 96.3787 133.544 95.696C133.288 95.0133 133.16 94.1173 133.16 93.008V65.168C133.16 63.3333 133.693 61.8827 134.76 60.816C135.827 59.7493 137.277 59.216 139.112 59.216H160.424ZM166.243 68.176C165.944 67.7067 165.667 67.0667 165.411 66.256C165.155 65.4453 165.027 64.592 165.027 63.696C165.027 62.032 165.39 60.8373 166.115 60.112C166.883 59.3867 167.864 59.024 169.059 59.024H196.963C197.262 59.4933 197.539 60.1333 197.795 60.944C198.051 61.7547 198.179 62.608 198.179 63.504C198.179 65.168 197.795 66.3627 197.027 67.088C196.302 67.8133 195.342 68.176 194.147 68.176H187.043V97.744C186.574 97.872 185.827 98 184.803 98.128C183.822 98.256 182.84 98.32 181.859 98.32C180.878 98.32 180.003 98.2347 179.235 98.064C178.51 97.936 177.891 97.68 177.379 97.296C176.867 96.912 176.483 96.3787 176.227 95.696C175.971 95.0133 175.843 94.1173 175.843 93.008V68.176H166.243Z" fill="#5D208D"/>
<path d="M229.006 88.72C229.006 91.9627 227.79 94.5013 225.358 96.336C222.926 98.1707 219.342 99.088 214.606 99.088C212.814 99.088 211.15 98.96 209.614 98.704C208.078 98.448 206.755 98.064 205.646 97.552C204.579 96.9973 203.726 96.3147 203.086 95.504C202.488 94.6933 202.19 93.7333 202.19 92.624C202.19 91.6 202.403 90.7467 202.83 90.064C203.256 89.3387 203.768 88.7413 204.366 88.272C205.603 88.9547 207.011 89.5733 208.59 90.128C210.211 90.64 212.067 90.896 214.158 90.896C215.48 90.896 216.483 90.704 217.166 90.32C217.891 89.936 218.253 89.424 218.253 88.784C218.253 88.1867 217.998 87.7173 217.486 87.376C216.974 87.0347 216.12 86.7573 214.926 86.544L213.006 86.16C209.294 85.4347 206.52 84.304 204.686 82.768C202.894 81.1893 201.998 78.9493 201.998 76.048C201.998 74.4693 202.339 73.04 203.022 71.76C203.704 70.48 204.664 69.4133 205.902 68.56C207.139 67.7067 208.611 67.0453 210.318 66.576C212.067 66.1067 213.987 65.872 216.078 65.872C217.656 65.872 219.128 66 220.494 66.256C221.902 66.4693 223.118 66.8107 224.142 67.28C225.166 67.7493 225.976 68.368 226.574 69.136C227.171 69.8613 227.47 70.736 227.47 71.76C227.47 72.7413 227.278 73.5947 226.894 74.32C226.552 75.0027 226.104 75.5787 225.55 76.048C225.208 75.8347 224.696 75.6213 224.014 75.408C223.331 75.152 222.584 74.9387 221.774 74.768C220.963 74.5547 220.131 74.384 219.278 74.256C218.467 74.128 217.72 74.064 217.038 74.064C215.63 74.064 214.542 74.2347 213.774 74.576C213.006 74.8747 212.622 75.3653 212.622 76.048C212.622 76.5173 212.835 76.9013 213.262 77.2C213.688 77.4987 214.499 77.776 215.694 78.032L217.678 78.48C221.774 79.4187 224.675 80.72 226.382 82.384C228.131 84.0053 229.006 86.1173 229.006 88.72ZM251.026 99.024C248.509 99.024 246.162 98.6827 243.986 98C241.853 97.2747 239.975 96.208 238.354 94.8C236.775 93.392 235.517 91.6213 234.578 89.488C233.682 87.3547 233.234 84.8587 233.234 82C233.234 79.184 233.682 76.7733 234.578 74.768C235.517 72.72 236.733 71.056 238.226 69.776C239.719 68.4533 241.426 67.4933 243.346 66.896C245.266 66.256 247.229 65.936 249.234 65.936C251.495 65.936 253.543 66.2773 255.378 66.96C257.255 67.6427 258.855 68.5813 260.178 69.776C261.543 70.9707 262.589 72.4 263.314 74.064C264.082 75.728 264.466 77.5413 264.466 79.504C264.466 80.9547 264.061 82.064 263.25 82.832C262.439 83.6 261.309 84.0907 259.858 84.304L244.05 86.672C244.519 88.08 245.479 89.1467 246.93 89.872C248.381 90.5547 250.045 90.896 251.922 90.896C253.671 90.896 255.314 90.6827 256.85 90.256C258.429 89.7867 259.709 89.2533 260.69 88.656C261.373 89.0827 261.949 89.68 262.418 90.448C262.887 91.216 263.122 92.0267 263.122 92.88C263.122 94.8 262.226 96.2293 260.434 97.168C259.069 97.8933 257.533 98.384 255.826 98.64C254.119 98.896 252.519 99.024 251.026 99.024ZM249.234 73.872C248.21 73.872 247.314 74.0427 246.546 74.384C245.821 74.7253 245.223 75.1733 244.754 75.728C244.285 76.24 243.922 76.8373 243.666 77.52C243.453 78.16 243.325 78.8213 243.282 79.504L254.226 77.712C254.098 76.8587 253.629 76.0053 252.818 75.152C252.007 74.2987 250.813 73.872 249.234 73.872ZM280.583 97.936C280.156 98.064 279.474 98.192 278.535 98.32C277.639 98.448 276.7 98.512 275.719 98.512C274.78 98.512 273.927 98.448 273.159 98.32C272.434 98.192 271.815 97.936 271.303 97.552C270.791 97.168 270.386 96.656 270.087 96.016C269.831 95.3333 269.703 94.4587 269.703 93.392V74.192C269.703 73.2107 269.874 72.3787 270.215 71.696C270.599 70.9707 271.132 70.3307 271.815 69.776C272.498 69.2213 273.33 68.7307 274.311 68.304C275.335 67.8347 276.423 67.4293 277.575 67.088C278.727 66.7467 279.922 66.4907 281.159 66.32C282.396 66.1067 283.634 66 284.871 66C286.919 66 288.54 66.4053 289.735 67.216C290.93 67.984 291.527 69.264 291.527 71.056C291.527 71.6533 291.442 72.2507 291.271 72.848C291.1 73.4027 290.887 73.9147 290.631 74.384C289.735 74.384 288.818 74.4267 287.879 74.512C286.94 74.5973 286.023 74.7253 285.127 74.896C284.231 75.0667 283.378 75.2587 282.567 75.472C281.799 75.6427 281.138 75.856 280.583 76.112V97.936ZM317.816 97.168C317.218 97.6373 316.344 98.0213 315.192 98.32C314.04 98.6187 312.738 98.768 311.288 98.768C309.624 98.768 308.173 98.5547 306.936 98.128C305.741 97.7013 304.909 97.0187 304.44 96.08C304.056 95.3547 303.586 94.352 303.032 93.072C302.52 91.7493 301.965 90.2987 301.368 88.72C300.77 87.0987 300.152 85.3707 299.512 83.536C298.872 81.7013 298.253 79.888 297.656 78.096C297.101 76.304 296.589 74.576 296.12 72.912C295.65 71.248 295.266 69.776 294.968 68.496C295.565 67.8987 296.354 67.3867 297.336 66.96C298.36 66.4907 299.469 66.256 300.664 66.256C302.157 66.256 303.373 66.576 304.312 67.216C305.293 67.8133 306.018 68.9653 306.488 70.672L308.984 80.464C309.453 82.384 309.901 84.1333 310.328 85.712C310.754 87.248 311.074 88.4427 311.288 89.296H311.608C312.418 86.1387 313.272 82.64 314.168 78.8C315.064 74.96 315.874 71.184 316.6 67.472C317.325 67.088 318.136 66.7893 319.032 66.576C319.97 66.3627 320.866 66.256 321.72 66.256C323.213 66.256 324.472 66.576 325.496 67.216C326.52 67.856 327.032 68.9653 327.032 70.544C327.032 71.2267 326.861 72.2293 326.52 73.552C326.221 74.832 325.816 76.304 325.304 77.968C324.834 79.5893 324.258 81.3173 323.576 83.152C322.936 84.9867 322.274 86.7787 321.592 88.528C320.909 90.2773 320.226 91.92 319.544 93.456C318.904 94.9493 318.328 96.1867 317.816 97.168ZM331.635 58.256C331.635 56.6347 332.168 55.2693 333.235 54.16C334.344 53.0507 335.795 52.496 337.587 52.496C339.379 52.496 340.808 53.0507 341.875 54.16C342.984 55.2693 343.539 56.6347 343.539 58.256C343.539 59.8773 342.984 61.2427 341.875 62.352C340.808 63.4613 339.379 64.016 337.587 64.016C335.795 64.016 334.344 63.4613 333.235 62.352C332.168 61.2427 331.635 59.8773 331.635 58.256ZM343.027 97.936C342.557 98.0213 341.853 98.128 340.915 98.256C340.019 98.4267 339.101 98.512 338.163 98.512C337.224 98.512 336.371 98.448 335.603 98.32C334.877 98.192 334.259 97.936 333.747 97.552C333.235 97.168 332.829 96.656 332.531 96.016C332.275 95.3333 332.147 94.4587 332.147 93.392V67.344C332.616 67.2587 333.299 67.152 334.195 67.024C335.133 66.8533 336.072 66.768 337.01 66.768C337.949 66.768 338.781 66.832 339.507 66.96C340.275 67.088 340.915 67.344 341.427 67.728C341.939 68.112 342.323 68.6453 342.579 69.328C342.877 69.968 343.027 70.8213 343.027 71.888V97.936ZM367.489 74.512C366.422 74.512 365.398 74.6827 364.417 75.024C363.478 75.3653 362.646 75.8773 361.921 76.56C361.238 77.2 360.684 78.0107 360.257 78.992C359.83 79.9733 359.617 81.1253 359.617 82.448C359.617 85.0933 360.364 87.0773 361.857 88.4C363.393 89.7227 365.249 90.384 367.425 90.384C368.705 90.384 369.814 90.2347 370.753 89.936C371.692 89.6373 372.524 89.3173 373.249 88.976C374.102 89.5733 374.742 90.2347 375.169 90.96C375.596 91.6427 375.809 92.4747 375.809 93.456C375.809 95.2053 374.977 96.5707 373.313 97.552C371.649 98.4907 369.345 98.96 366.401 98.96C363.713 98.96 361.281 98.576 359.105 97.808C356.929 96.9973 355.052 95.888 353.473 94.48C351.937 93.0293 350.742 91.3013 349.889 89.296C349.036 87.2907 348.609 85.072 348.609 82.64C348.609 79.824 349.057 77.3707 349.953 75.28C350.892 73.1467 352.15 71.3973 353.729 70.032C355.308 68.6667 357.121 67.6427 359.169 66.96C361.26 66.2773 363.457 65.936 365.761 65.936C368.833 65.936 371.201 66.4907 372.865 67.6C374.529 68.7093 375.361 70.1387 375.361 71.888C375.361 72.6987 375.169 73.4667 374.785 74.192C374.401 74.8747 373.953 75.472 373.441 75.984C372.716 75.6427 371.841 75.3227 370.817 75.024C369.793 74.6827 368.684 74.512 367.489 74.512ZM396.776 99.024C394.259 99.024 391.912 98.6827 389.736 98C387.603 97.2747 385.725 96.208 384.104 94.8C382.525 93.392 381.267 91.6213 380.328 89.488C379.432 87.3547 378.984 84.8587 378.984 82C378.984 79.184 379.432 76.7733 380.328 74.768C381.267 72.72 382.483 71.056 383.976 69.776C385.469 68.4533 387.176 67.4933 389.096 66.896C391.016 66.256 392.979 65.936 394.984 65.936C397.245 65.936 399.293 66.2773 401.128 66.96C403.005 67.6427 404.605 68.5813 405.928 69.776C407.293 70.9707 408.339 72.4 409.064 74.064C409.832 75.728 410.216 77.5413 410.216 79.504C410.216 80.9547 409.811 82.064 409 82.832C408.189 83.6 407.059 84.0907 405.608 84.304L389.8 86.672C390.269 88.08 391.229 89.1467 392.68 89.872C394.131 90.5547 395.795 90.896 397.672 90.896C399.421 90.896 401.064 90.6827 402.6 90.256C404.179 89.7867 405.459 89.2533 406.44 88.656C407.123 89.0827 407.699 89.68 408.168 90.448C408.637 91.216 408.872 92.0267 408.872 92.88C408.872 94.8 407.976 96.2293 406.184 97.168C404.819 97.8933 403.283 98.384 401.576 98.64C399.869 98.896 398.269 99.024 396.776 99.024ZM394.984 73.872C393.96 73.872 393.064 74.0427 392.296 74.384C391.571 74.7253 390.973 75.1733 390.504 75.728C390.035 76.24 389.672 76.8373 389.416 77.52C389.203 78.16 389.075 78.8213 389.032 79.504L399.976 77.712C399.848 76.8587 399.379 76.0053 398.568 75.152C397.757 74.2987 396.563 73.872 394.984 73.872Z" fill="#9454C7"/>
<defs>
<clipPath id="clip0">
<rect width="114" height="114" fill="white" transform="translate(0 3.51892) rotate(-1.76887)"/>
</clipPath>
</defs>
</svg>
