<svg width="15" height="15" viewBox="0 0 15 15" fill="none" xmlns="http://www.w3.org/2000/svg">
<path d="M14.8692 14.235L11.2239 10.5898C12.2018 9.46563 12.7938 7.99889 12.7938 6.39579C12.7938 2.86696 9.92348 0 6.39798 0C2.86916 0 0.00219727 2.87029 0.00219727 6.39579C0.00219727 9.92129 2.87249 12.7916 6.39798 12.7916C8.00109 12.7916 9.46783 12.1996 10.592 11.2217L14.2372 14.867C14.3237 14.9534 14.4401 15 14.5532 15C14.6663 15 14.7827 14.9568 14.8692 14.867C15.0421 14.694 15.0421 14.408 14.8692 14.235ZM0.896876 6.39579C0.896876 3.36253 3.36472 0.898004 6.39466 0.898004C9.42792 0.898004 11.8924 3.36585 11.8924 6.39579C11.8924 9.42572 9.42792 11.8969 6.39466 11.8969C3.36472 11.8969 0.896876 9.42905 0.896876 6.39579Z" fill="white"/>
</svg>
