<svg width="15" height="16" viewBox="0 0 15 16" fill="none" xmlns="http://www.w3.org/2000/svg">
<path d="M14.0284 1.03729C12.7372 -0.343402 10.6374 -0.343402 9.3462 1.03729L0.761639 10.1907C0.694522 10.2623 0.652973 10.3544 0.640189 10.4532L0.00417687 15.4783C-0.0149994 15.6215 0.0329412 15.7646 0.125626 15.8635C0.205527 15.9487 0.317389 15.9999 0.42925 15.9999C0.448427 15.9999 0.467603 15.9999 0.486779 15.9965L3.32486 15.5874C3.56137 15.5533 3.72756 15.3214 3.6956 15.0692C3.66364 14.8169 3.44631 14.6396 3.20981 14.6737L0.934225 15.001L1.37847 11.4964L4.83659 15.1851C4.91649 15.2703 5.02835 15.3214 5.14021 15.3214C5.25208 15.3214 5.36394 15.2737 5.44384 15.1851L14.0284 6.03163C14.6548 5.36344 15 4.47708 15 3.53275C15 2.58843 14.6548 1.70206 14.0284 1.03729ZM9.5124 2.16229L10.9538 3.6998L3.12032 12.0555L1.6789 10.518L9.5124 2.16229ZM5.14341 14.2101L3.73396 12.7067L11.5675 4.35094L12.9769 5.85436L5.14341 14.2101ZM13.5778 5.1964L10.1292 1.51797C10.5671 1.13274 11.1136 0.921377 11.6889 0.921377C12.3441 0.921377 12.9577 1.19411 13.4212 1.68502C13.8846 2.17593 14.1371 2.83389 14.1371 3.53275C14.1371 4.1498 13.9389 4.72935 13.5778 5.1964Z" fill="#FFFEFE"/>
</svg>
