<svg width="70" height="70" viewBox="0 0 70 70" fill="none" xmlns="http://www.w3.org/2000/svg">
<rect width="70" height="70" rx="20" fill="#4D76A1"/>
<path fill-rule="evenodd" clip-rule="evenodd" d="M34.449 50.2273H37.3138C37.3138 50.2273 38.1791 50.1323 38.6209 49.6561C39.0276 49.2188 39.0146 48.3977 39.0146 48.3977C39.0146 48.3977 38.9586 44.5537 40.7427 43.9876C42.5014 43.43 44.7598 47.7028 47.1535 49.3457C48.9636 50.5891 50.3391 50.3165 50.3391 50.3165L56.7395 50.2273C56.7395 50.2273 60.0877 50.0211 58.5001 47.3886C58.37 47.1732 57.5756 45.4412 53.7413 41.8821C49.7281 38.1572 50.2656 38.7597 55.0999 32.3163C58.044 28.3923 59.2211 25.9966 58.8534 24.9705C58.5027 23.9932 56.3374 24.2516 56.3374 24.2516L49.1308 24.2964C49.1308 24.2964 48.5966 24.2236 48.2004 24.4604C47.8133 24.6927 47.5641 25.234 47.5641 25.234C47.5641 25.234 46.4235 28.2706 44.9023 30.853C41.6933 36.3022 40.4102 36.5898 39.8858 36.2514C38.6658 35.4629 38.9703 33.0834 38.9703 31.3931C38.9703 26.1124 39.7713 23.9106 37.4107 23.3406C36.6273 23.1513 36.0509 23.0264 34.0475 23.0062C31.4762 22.9795 29.2998 23.014 28.0674 23.6178C27.2476 24.0193 26.6152 24.9139 27.0004 24.9653C27.4766 25.0291 28.5554 25.2562 29.1273 26.035C29.8658 27.0396 29.8398 29.296 29.8398 29.296C29.8398 29.296 30.264 35.5123 28.8489 36.2846C27.8774 36.8142 26.5449 35.7329 23.684 30.7893C22.2181 28.2569 21.1114 25.4579 21.1114 25.4579C21.1114 25.4579 20.8979 24.9347 20.5173 24.655C20.0554 24.316 19.4099 24.208 19.4099 24.208L12.5619 24.2529C12.5619 24.2529 11.5338 24.2815 11.1565 24.7285C10.8207 25.126 11.1298 25.9484 11.1298 25.9484C11.1298 25.9484 16.4911 38.4916 22.5617 44.8126C28.1279 50.608 34.449 50.2273 34.449 50.2273Z" fill="white"/>
</svg>
