<svg width="50" height="38" viewBox="0 0 50 38" fill="none" xmlns="http://www.w3.org/2000/svg">
<path d="M47.8246 21.1219C46.3747 19.3077 44.5218 18.1318 42.2644 17.5935C42.9768 16.5172 43.332 15.3192 43.332 13.9999C43.332 12.1595 42.6808 10.5885 41.3792 9.28624C40.0774 7.98447 38.5062 7.33331 36.6659 7.33331C35.0165 7.33331 33.5757 7.87155 32.3433 8.94803C31.3195 6.44792 29.6826 4.44282 27.4346 2.93263C25.1866 1.42198 22.7082 0.666748 19.9996 0.666748C16.3193 0.666748 13.1768 1.96916 10.5726 4.57334C7.96824 7.17688 6.66647 10.3196 6.66647 14.0001C6.66647 14.2258 6.68389 14.5991 6.71855 15.1198C4.67003 16.0747 3.03826 17.5069 1.82268 19.4164C0.60756 21.3264 0 23.4093 0 25.6667C0 28.8787 1.1417 31.6255 3.42445 33.9084C5.70729 36.1921 8.45477 37.3333 11.6665 37.3333H40.0001C42.7601 37.3333 45.1167 36.3563 47.0701 34.4035C49.0232 32.4508 49.9999 30.0942 49.9999 27.3332C49.9996 25.0068 49.2746 22.9367 47.8246 21.1219ZM33.0851 20.4193C32.9197 20.5838 32.7249 20.6662 32.4995 20.6662H26.6663V29.8331C26.6663 30.0585 26.5839 30.2539 26.419 30.4187C26.2536 30.5841 26.0588 30.666 25.8334 30.666H20.8326C20.607 30.666 20.4117 30.5841 20.2468 30.4187C20.0822 30.2539 19.9994 30.0585 19.9994 29.8331V20.6662H14.1661C13.9233 20.6662 13.7234 20.5882 13.5674 20.4324C13.4112 20.276 13.3332 20.0763 13.3332 19.8335C13.3332 19.625 13.4199 19.4165 13.5934 19.2082L22.7339 10.0679C22.8902 9.91159 23.0899 9.83351 23.3329 9.83351C23.5761 9.83351 23.7758 9.91159 23.9319 10.0679L33.0986 19.2342C33.2549 19.3904 33.3323 19.59 33.3323 19.8336C33.3322 20.0588 33.2498 20.2548 33.0851 20.4193Z" fill="white"/>
</svg>
