<svg width="56" height="56" viewBox="0 0 56 56" fill="none" xmlns="http://www.w3.org/2000/svg">
<g clip-path="url(#clip0)">
<path d="M51.3291 35.38C50.5713 35.38 49.9571 35.9942 49.9571 36.752V48.9339C49.9544 51.2063 48.1134 53.0478 45.841 53.05H7.34392C5.07154 53.0478 3.23058 51.2063 3.2279 48.9339V13.1808C3.23058 10.909 5.07154 9.06749 7.34392 9.06481H19.5258C20.2837 9.06481 20.8979 8.45062 20.8979 7.6928C20.8979 6.93552 20.2837 6.32079 19.5258 6.32079H7.34392C3.55697 6.32508 0.488174 9.39388 0.483887 13.1808V48.9345C0.488174 52.7214 3.55697 55.7902 7.34392 55.7945H45.841C49.628 55.7902 52.6968 52.7214 52.7011 48.9345V36.752C52.7011 35.9942 52.0869 35.38 51.3291 35.38Z" fill="white"/>
<path d="M52.1577 2.79056C49.7465 0.379364 45.8373 0.379364 43.4261 2.79056L18.9487 27.268C18.7809 27.4358 18.6598 27.6437 18.5966 27.872L15.3777 39.4928C15.2453 39.9693 15.3798 40.4795 15.7293 40.8294C16.0792 41.1789 16.5895 41.3134 17.0659 41.1816L28.6867 37.9622C28.915 37.8989 29.123 37.7778 29.2907 37.6101L53.7676 13.1321C56.1751 10.7193 56.1751 6.81332 53.7676 4.40052L52.1577 2.79056ZM21.9381 28.1598L41.9711 8.12638L48.4318 14.5871L28.3984 34.6206L21.9381 28.1598ZM20.6476 30.7495L25.8092 35.9117L18.6694 37.8898L20.6476 30.7495ZM51.8275 11.192L50.3725 12.647L43.9112 6.18574L45.3668 4.73066C46.7061 3.39135 48.8777 3.39135 50.217 4.73066L51.8275 6.34063C53.1647 7.68155 53.1647 9.85157 51.8275 11.192Z" fill="white"/>
</g>
<defs>
<clipPath id="clip0">
<rect width="55.0892" height="55.0892" fill="white" transform="translate(0.483887 0.773315)"/>
</clipPath>
</defs>
</svg>
