<svg width="50" height="50" viewBox="0 0 50 50" fill="none" xmlns="http://www.w3.org/2000/svg">
<g clip-path="url(#clip0)">
<path d="M25 13.1371L7.16776 27.8379C7.16776 27.8587 7.16255 27.8892 7.15212 27.9308C7.14191 27.9721 7.13647 28.002 7.13647 28.0233V42.9095C7.13647 43.447 7.33298 43.9127 7.72588 44.305C8.11866 44.6975 8.5838 44.8949 9.12138 44.8949H21.03V32.9857H28.9702V44.8954H40.8786C41.4161 44.8954 41.8819 44.6983 42.2741 44.305C42.667 43.9132 42.8642 43.4471 42.8642 42.9095V28.0233C42.8642 27.9408 42.8529 27.8784 42.8329 27.8379L25 13.1371Z" fill="white"/>
<path d="M49.6551 24.4883L42.8636 18.8439V6.19047C42.8636 5.9012 42.7706 5.66331 42.584 5.47712C42.3989 5.29116 42.161 5.19817 41.8711 5.19817H35.9167C35.6271 5.19817 35.3893 5.29116 35.203 5.47712C35.0172 5.66331 34.9243 5.90131 34.9243 6.19047V12.238L27.3572 5.91108C26.6964 5.3735 25.9106 5.10476 25.0007 5.10476C24.091 5.10476 23.3053 5.3735 22.6438 5.91108L0.34462 24.4883C0.137906 24.6534 0.0246099 24.8757 0.00353656 25.1549C-0.0174281 25.4338 0.0548077 25.6775 0.220461 25.8841L2.14324 28.1791C2.30889 28.3651 2.52571 28.4788 2.79455 28.5204C3.04276 28.5413 3.29097 28.4687 3.53918 28.3034L25.0001 10.4082L46.4612 28.3033C46.6269 28.4475 46.8436 28.5195 47.1125 28.5195H47.2057C47.4741 28.4787 47.6905 28.3642 47.857 28.1787L49.78 25.884C49.9453 25.6769 50.0178 25.4337 49.9963 25.1544C49.9751 24.876 49.8614 24.6538 49.6551 24.4883Z" fill="white"/>
</g>
<defs>
<clipPath id="clip0">
<rect width="50" height="50" fill="white"/>
</clipPath>
</defs>
</svg>
