<svg width="30" height="30" viewBox="0 0 30 30" fill="none" xmlns="http://www.w3.org/2000/svg">
<path d="M29.9996 16.3792C29.9996 15.7891 29.8664 15.2255 29.6258 14.7098C29.601 14.5787 29.5726 14.4479 29.5372 14.3151L26.9313 7.85697L26.9136 7.79887C26.0019 5.08406 24.7046 2.57144 21.4149 2.57144H8.83745C5.46674 2.57144 4.27564 5.14632 3.3439 7.78379L0.618101 14.2577C0.224039 14.889 0 15.6113 0 16.3792V18.3888C0 18.6994 0.0367255 19.0034 0.106558 19.2961C0.038669 19.473 0 19.6636 0 19.8645V25.8414C0 26.7179 0.710518 27.4285 1.58697 27.4285H4.88021C5.75619 27.4285 6.46671 26.7179 6.46671 25.8414V22.8525H23.721V25.8414C23.721 26.7179 24.4317 27.4285 25.3082 27.4285H28.4128C29.2896 27.4285 30 26.7179 30 25.8414V19.8638C30 19.6636 29.9609 19.4722 29.8936 19.2959C29.9631 19.0027 30 18.6991 30 18.3885V16.3792H29.9996V16.3792ZM5.27789 8.43218C6.31552 5.50466 7.14995 4.61098 8.83745 4.61098H21.4142C23.0893 4.61098 24.022 5.60773 24.9699 8.41958L26.8715 12.2732C26.2506 12.0433 25.5673 11.9157 24.8494 11.9157H5.15022C4.50384 11.9157 3.88614 12.0196 3.31622 12.2077L5.27789 8.43218ZM6.91144 19.1519H3.43672C2.81111 19.1519 2.30372 18.6441 2.30372 18.0185C2.30372 17.3928 2.81111 16.8853 3.43672 16.8853H6.91144C7.53731 16.8853 8.0447 17.3928 8.0447 18.0185C8.0447 18.6441 7.53698 19.1519 6.91144 19.1519ZM19.186 18.925H11.1037C10.7074 18.925 10.3864 18.6037 10.3864 18.2076C10.3864 17.8108 10.7074 17.4896 11.1037 17.4896H19.186C19.5828 17.4896 19.9038 17.8108 19.9038 18.2076C19.9038 18.6037 19.5828 18.925 19.186 18.925ZM26.4753 19.1519H23.0007C22.3746 19.1519 21.8674 18.6441 21.8674 18.0185C21.8674 17.3928 22.375 16.8853 23.0007 16.8853H26.4753C27.1014 16.8853 27.609 17.3928 27.609 18.0185C27.609 18.6441 27.1014 19.1519 26.4753 19.1519Z" fill="white"/>
</svg>
