<svg width="25" height="25" viewBox="0 0 25 25" fill="none" xmlns="http://www.w3.org/2000/svg">
<rect x="0.5" y="0.5" width="24" height="24" rx="2.5" stroke="white"/>
<path d="M19.0284 4.03729C17.7372 2.6566 15.6374 2.6566 14.3462 4.03729L5.76164 13.1907C5.69452 13.2623 5.65297 13.3544 5.64019 13.4532L5.00418 18.4783C4.985 18.6215 5.03294 18.7646 5.12563 18.8635C5.20553 18.9487 5.31739 18.9999 5.42925 18.9999C5.44843 18.9999 5.4676 18.9999 5.48678 18.9965L8.32486 18.5874C8.56137 18.5533 8.72756 18.3214 8.6956 18.0692C8.66364 17.8169 8.44631 17.6396 8.20981 17.6737L5.93422 18.001L6.37847 14.4964L9.83659 18.1851C9.91649 18.2703 10.0284 18.3214 10.1402 18.3214C10.2521 18.3214 10.3639 18.2737 10.4438 18.1851L19.0284 9.03163C19.6548 8.36344 20 7.47708 20 6.53275C20 5.58843 19.6548 4.70206 19.0284 4.03729ZM14.5124 5.16229L15.9538 6.6998L8.12032 15.0555L6.6789 13.518L14.5124 5.16229ZM10.1434 17.2101L8.73396 15.7067L16.5675 7.35094L17.9769 8.85436L10.1434 17.2101ZM18.5778 8.1964L15.1292 4.51797C15.5671 4.13274 16.1136 3.92138 16.6889 3.92138C17.3441 3.92138 17.9577 4.19411 18.4212 4.68502C18.8846 5.17593 19.1371 5.83389 19.1371 6.53275C19.1371 7.1498 18.9389 7.72935 18.5778 8.1964Z" fill="#FFFEFE"/>
</svg>
