<svg width="25" height="25" viewBox="0 0 25 25" fill="none" xmlns="http://www.w3.org/2000/svg">
<rect width="25" height="25" rx="3" fill="#DC4E41"/>
<path d="M20.6381 7.15872H17.1291V6.64988C17.1291 5.74013 16.2969 5 15.274 5H11.9384C10.9155 5 10.0833 5.74013 10.0833 6.64988V7.15872H6.5743C6.31425 7.15872 6.1062 7.34375 6.1062 7.57504C6.1062 7.80633 6.31425 7.99137 6.5743 7.99137H7.42035V17.7734C7.42035 19.0008 8.54379 20 9.92382 20H17.2886C18.6686 20 19.7921 19.0008 19.7921 17.7734V7.99137H20.6381C20.8982 7.99137 21.1062 7.80633 21.1062 7.57504C21.1062 7.34375 20.8982 7.15872 20.6381 7.15872ZM11.0195 6.64988C11.0195 6.19963 11.4321 5.83265 11.9384 5.83265H15.274C15.7803 5.83265 16.1929 6.19963 16.1929 6.64988V7.15872H11.0195V6.64988ZM18.8559 17.7734C18.8559 18.5413 18.152 19.1674 17.2886 19.1674H9.92382C9.06043 19.1674 8.35655 18.5413 8.35655 17.7734V7.99137H18.8593V17.7734H18.8559Z" fill="white"/>
<path d="M13.6063 17.6747C13.8663 17.6747 14.0744 17.4897 14.0744 17.2584V9.90027C14.0744 9.66898 13.8663 9.48395 13.6063 9.48395C13.3462 9.48395 13.1382 9.66898 13.1382 9.90027V17.2553C13.1382 17.4866 13.3462 17.6747 13.6063 17.6747Z" fill="white"/>
<path d="M10.5514 17.2152C10.8114 17.2152 11.0195 17.0302 11.0195 16.7989V10.3567C11.0195 10.1254 10.8114 9.94037 10.5514 9.94037C10.2913 9.94037 10.0833 10.1254 10.0833 10.3567V16.7989C10.0833 17.0302 10.2948 17.2152 10.5514 17.2152Z" fill="white"/>
<path d="M16.661 17.2152C16.921 17.2152 17.1291 17.0302 17.1291 16.7989V10.3567C17.1291 10.1254 16.921 9.94037 16.661 9.94037C16.4009 9.94037 16.1929 10.1254 16.1929 10.3567V16.7989C16.1929 17.0302 16.4009 17.2152 16.661 17.2152Z" fill="white"/>
</svg>
