<svg width="20" height="20" viewBox="0 0 20 20" fill="none" xmlns="http://www.w3.org/2000/svg">
<path d="M18.7045 1.29617C16.9829 -0.429695 14.1832 -0.429695 12.4616 1.29617L1.01552 12.738C0.926028 12.8275 0.87063 12.9425 0.853585 13.0661L0.00556915 19.3474C-0.0199992 19.5264 0.0439216 19.7053 0.167502 19.8289C0.274036 19.9355 0.423185 19.9994 0.572333 19.9994C0.597902 19.9994 0.62347 19.9994 0.649038 19.9951L4.43315 19.4838C4.74849 19.4411 4.97008 19.1514 4.92747 18.836C4.88486 18.5207 4.59508 18.2991 4.27974 18.3417L1.24563 18.7508L1.83796 14.3701L6.44878 18.9809C6.55532 19.0874 6.70447 19.1514 6.85362 19.1514C7.00276 19.1514 7.15191 19.0917 7.25845 18.9809L18.7045 7.53909C19.5398 6.70386 20 5.5959 20 4.4155C20 3.2351 19.5398 2.12714 18.7045 1.29617ZM12.6832 2.70242L14.6051 4.62431L4.16042 15.069L2.23853 13.1471L12.6832 2.70242ZM6.85788 17.7622L4.97861 15.8829L15.4233 5.43823L17.3025 7.3175L6.85788 17.7622ZM18.1037 6.49506L13.5056 1.89702C14.0894 1.41548 14.8181 1.15128 15.5852 1.15128C16.4588 1.15128 17.277 1.49219 17.8949 2.10583C18.5128 2.71947 18.8494 3.54192 18.8494 4.4155C18.8494 5.18681 18.5852 5.91125 18.1037 6.49506Z" fill="#FFFEFE"/>
</svg>
