<svg width="39" height="28" viewBox="0 0 39 28" fill="none" xmlns="http://www.w3.org/2000/svg">
<path d="M36.5208 15.6204C35.4136 14.235 33.9986 13.337 32.2748 12.926C32.8188 12.1041 33.09 11.1892 33.09 10.1817C33.09 8.77632 32.5928 7.57662 31.5988 6.58219C30.6047 5.5881 29.4049 5.09085 27.9995 5.09085C26.74 5.09085 25.6397 5.50187 24.6987 6.32391C23.9168 4.41473 22.6668 2.88356 20.9502 1.73031C19.2335 0.576725 17.3409 0 15.2725 0C12.4621 0 10.0623 0.994572 8.07366 2.98323C6.08487 4.9714 5.09078 7.37128 5.09078 10.1819C5.09078 10.3542 5.10409 10.6393 5.13056 11.0369C3.56622 11.7661 2.32013 12.8598 1.39187 14.318C0.463957 15.7766 0 17.3672 0 19.091C0 21.5437 0.871844 23.6413 2.61504 25.3847C4.35831 27.1286 6.4564 28 8.90901 28H30.5457C32.6533 28 34.4529 27.2539 35.9446 25.7628C37.4361 24.2716 38.1819 22.4719 38.1819 20.3635C38.1817 18.5871 37.628 17.0062 36.5208 15.6204ZM25.2651 15.0838C25.1388 15.2095 24.99 15.2723 24.8179 15.2723H20.3634V22.2726C20.3634 22.4447 20.3005 22.5939 20.1746 22.7198C20.0483 22.846 19.8995 22.9086 19.7274 22.9086H15.9086C15.7363 22.9086 15.5872 22.8461 15.4612 22.7198C15.3356 22.5939 15.2724 22.4447 15.2724 22.2726V15.2723H10.8178C10.6324 15.2723 10.4798 15.2128 10.3606 15.0938C10.2413 14.9744 10.1818 14.8219 10.1818 14.6365C10.1818 14.4773 10.2479 14.318 10.3804 14.159L17.3605 7.17911C17.4799 7.05973 17.6324 7.0001 17.818 7.0001C18.0036 7.0001 18.1562 7.05973 18.2754 7.17911L25.2754 14.1789C25.3948 14.2981 25.4538 14.4506 25.4538 14.6366C25.4538 14.8085 25.3909 14.9582 25.2651 15.0838Z" fill="white"/>
</svg>
