<svg width="30" height="30" viewBox="0 0 30 30" fill="none" xmlns="http://www.w3.org/2000/svg">
<g clip-path="url(#clip0)">
<path d="M15 12C12.5145 12 10.5 14.0154 10.5 16.5C10.5 18.9855 12.5145 21 15 21C17.4849 21 19.5 18.9855 19.5 16.5C19.5 14.0154 17.4849 12 15 12ZM27 7.5H23.4C22.905 7.5 22.3716 7.116 22.2153 6.6462L21.2847 3.8535C21.1278 3.384 20.595 3 20.1 3H9.9C9.405 3 8.8716 3.384 8.7153 3.8538L7.7847 6.6465C7.6278 7.116 7.095 7.5 6.6 7.5H3C1.35 7.5 0 8.85 0 10.5V24C0 25.65 1.35 27 3 27H27C28.65 27 30 25.65 30 24V10.5C30 8.85 28.65 7.5 27 7.5ZM15 24C10.8579 24 7.5 20.6421 7.5 16.5C7.5 12.3582 10.8579 9 15 9C19.1415 9 22.5 12.3582 22.5 16.5C22.5 20.6421 19.1415 24 15 24ZM25.95 12.5979C25.3704 12.5979 24.9 12.1281 24.9 11.5479C24.9 10.9683 25.3704 10.4979 25.95 10.4979C26.5302 10.4979 27 10.9683 27 11.5479C27 12.1281 26.5299 12.5979 25.95 12.5979Z" fill="white"/>
</g>
<defs>
<clipPath id="clip0">
<rect width="30" height="30" fill="white"/>
</clipPath>
</defs>
</svg>
