<svg width="25" height="25" viewBox="0 0 25 25" fill="none" xmlns="http://www.w3.org/2000/svg">
<rect x="0.5" y="0.5" width="24" height="24" rx="2.5" stroke="white"/>
<g clip-path="url(#clip0)">
<path d="M19.8692 19.235L16.2239 15.5898C17.2018 14.4656 17.7938 12.9989 17.7938 11.3958C17.7938 7.86696 14.9235 5 11.398 5C7.86916 5 5.0022 7.87029 5.0022 11.3958C5.0022 14.9213 7.87249 17.7916 11.398 17.7916C13.0011 17.7916 14.4678 17.1996 15.592 16.2217L19.2372 19.867C19.3237 19.9534 19.4401 20 19.5532 20C19.6663 20 19.7827 19.9568 19.8692 19.867C20.0421 19.694 20.0421 19.408 19.8692 19.235ZM5.89688 11.3958C5.89688 8.36253 8.36472 5.898 11.3947 5.898C14.4279 5.898 16.8924 8.36585 16.8924 11.3958C16.8924 14.4257 14.4279 16.8969 11.3947 16.8969C8.36472 16.8969 5.89688 14.429 5.89688 11.3958Z" fill="white"/>
</g>
<defs>
<clipPath id="clip0">
<rect width="15" height="15" fill="white" transform="translate(5 5)"/>
</clipPath>
</defs>
</svg>
