<svg width="33" height="33" viewBox="0 0 33 33" fill="none" xmlns="http://www.w3.org/2000/svg">
<path d="M16.5 13.2C13.766 13.2 11.55 15.4169 11.55 18.15C11.55 20.8841 13.766 23.1 16.5 23.1C19.2334 23.1 21.45 20.8841 21.45 18.15C21.45 15.4169 19.2334 13.2 16.5 13.2ZM29.7 8.25H25.74C25.1955 8.25 24.6088 7.8276 24.4368 7.31082L23.4132 4.23885C23.2406 3.7224 22.6545 3.3 22.11 3.3H10.89C10.3455 3.3 9.75876 3.7224 9.58683 4.23918L8.56317 7.31115C8.39058 7.8276 7.8045 8.25 7.26 8.25H3.3C1.485 8.25 0 9.735 0 11.55V26.4C0 28.215 1.485 29.7 3.3 29.7H29.7C31.515 29.7 33 28.215 33 26.4V11.55C33 9.735 31.515 8.25 29.7 8.25ZM16.5 26.4C11.9437 26.4 8.25 22.7063 8.25 18.15C8.25 13.594 11.9437 9.9 16.5 9.9C21.0557 9.9 24.75 13.594 24.75 18.15C24.75 22.7063 21.0557 26.4 16.5 26.4ZM28.545 13.8577C27.9074 13.8577 27.39 13.3409 27.39 12.7027C27.39 12.0651 27.9074 11.5477 28.545 11.5477C29.1832 11.5477 29.7 12.0651 29.7 12.7027C29.7 13.3409 29.1829 13.8577 28.545 13.8577Z" fill="white"/>
</svg>
