<svg width="34" height="33" viewBox="0 0 34 33" fill="none" xmlns="http://www.w3.org/2000/svg">
<g clip-path="url(#clip0)">
<path d="M16.9997 8.67049L4.87381 18.373C4.87381 18.3867 4.87027 18.4069 4.86318 18.4343C4.85623 18.4616 4.85254 18.4814 4.85254 18.4954V28.3203C4.85254 28.675 4.98616 28.9824 5.25333 29.2413C5.52043 29.5003 5.83672 29.6307 6.20228 29.6307H14.3001V21.7706H19.6994V29.631H27.7972C28.1627 29.631 28.4794 29.5009 28.7462 29.2413C29.0133 28.9827 29.1474 28.6751 29.1474 28.3203V18.4954C29.1474 18.4409 29.1397 18.3998 29.1261 18.373L16.9997 8.67049Z" fill="white"/>
<path d="M33.7654 16.1623L29.1472 12.437V4.08571C29.1472 3.89479 29.084 3.73779 28.9571 3.6149C28.8312 3.49217 28.6695 3.4308 28.4723 3.4308H24.4233C24.2264 3.4308 24.0647 3.49217 23.938 3.6149C23.8117 3.73779 23.7485 3.89486 23.7485 4.08571V8.07707L18.6029 3.90132C18.1535 3.54651 17.6192 3.36914 17.0005 3.36914C16.3819 3.36914 15.8476 3.54651 15.3978 3.90132L0.234342 16.1623C0.0937761 16.2713 0.0167347 16.418 0.00240486 16.6022C-0.0118511 16.7863 0.0372692 16.9471 0.149914 17.0835L1.4574 18.5982C1.57005 18.721 1.71748 18.796 1.9003 18.8235C2.06908 18.8372 2.23786 18.7893 2.40664 18.6802L17 6.8694L31.5936 18.6802C31.7063 18.7754 31.8537 18.8229 32.0365 18.8229H32.0999C32.2824 18.7959 32.4295 18.7204 32.5428 18.5979L33.8504 17.0834C33.9628 16.9468 34.0121 16.7862 33.9975 16.6019C33.9831 16.4182 33.9057 16.2715 33.7654 16.1623Z" fill="white"/>
</g>
<defs>
<clipPath id="clip0">
<rect width="34" height="33" fill="white"/>
</clipPath>
</defs>
</svg>
