<svg width="33" height="33" viewBox="0 0 33 33" fill="none" xmlns="http://www.w3.org/2000/svg">
<path d="M13.5996 17.4668H19.4004V19.4004H13.5996V17.4668Z" fill="white"/>
<path d="M26.7725 19.4004H21.334V20.3672C21.334 20.9014 20.9014 21.334 20.3672 21.334H12.6328C12.0986 21.334 11.666 20.9014 11.666 20.3672V19.4004H6.22753C4.97749 19.4004 3.87197 18.6035 3.47619 17.4177L0 6.98737V28.1016C0 29.7008 1.30115 31.002 2.90039 31.002H30.0996C31.6989 31.002 33 29.7008 33 28.1016V6.98813L29.5236 17.4177C29.128 18.6035 28.0225 19.4004 26.7725 19.4004Z" fill="white"/>
<path d="M20.3673 1.99805H12.6329C11.0337 1.99805 9.73255 3.29919 9.73255 4.89844V5.86523H1.66357L5.30996 16.8059C5.44214 17.2014 5.81123 17.4668 6.22766 17.4668H11.6661V16.5C11.6661 15.9657 12.0987 15.5332 12.6329 15.5332H20.3673C20.9016 15.5332 21.3341 15.9657 21.3341 16.5V17.4668H26.7726C27.189 17.4668 27.5581 17.2014 27.6903 16.8059L31.3369 5.86523H23.2677V4.89844C23.2677 3.29919 21.9666 1.99805 20.3673 1.99805ZM11.6661 5.86523V4.89844C11.6661 4.36494 12.0994 3.93164 12.6329 3.93164H20.3673C20.9008 3.93164 21.3341 4.36494 21.3341 4.89844V5.86523H11.6661Z" fill="white"/>
</svg>
