<svg width="33" height="34" viewBox="0 0 33 34" fill="none" xmlns="http://www.w3.org/2000/svg">
<path d="M32.9996 18.5631C32.9996 17.8943 32.853 17.2555 32.5884 16.6712C32.5611 16.5226 32.5299 16.3743 32.4909 16.2238L29.6244 8.90458L29.605 8.83873C28.6021 5.76195 27.175 2.91431 23.5564 2.91431H9.72119C6.01342 2.91431 4.70321 5.83251 3.67829 8.82164L0.679911 16.1587C0.246443 16.8743 0 17.6928 0 18.5631V20.8406C0 21.1927 0.0403981 21.5372 0.117213 21.8689C0.0425359 22.0694 0 22.2854 0 22.5131V29.287C0 30.2803 0.78157 31.0857 1.74567 31.0857H5.36823C6.33181 31.0857 7.11338 30.2803 7.11338 29.287V25.8995H26.0931V29.287C26.0931 30.2803 26.8748 31.0857 27.839 31.0857H31.2541C32.2186 31.0857 33 30.2803 33 29.287V22.5123C33 22.2855 32.957 22.0685 32.8829 21.8687C32.9595 21.5364 33 21.1923 33 20.8403V18.5631H32.9996V18.5631ZM5.80568 9.55648C6.94707 6.23863 7.86495 5.22579 9.72119 5.22579H23.5556C25.3982 5.22579 26.4243 6.35544 27.4669 9.5422L29.5586 13.9097C28.8756 13.6491 28.124 13.5044 27.3343 13.5044H5.66524C4.95422 13.5044 4.27475 13.6222 3.64784 13.8355L5.80568 9.55648ZM7.60258 21.7056H3.78039C3.09222 21.7056 2.5341 21.13 2.5341 20.421C2.5341 19.7119 3.09222 19.1367 3.78039 19.1367H7.60258C8.29104 19.1367 8.84917 19.7119 8.84917 20.421C8.84917 21.13 8.29067 21.7056 7.60258 21.7056ZM21.1046 21.4483H12.2141C11.7782 21.4483 11.425 21.0842 11.425 20.6353C11.425 20.1856 11.7782 19.8216 12.2141 19.8216H21.1046C21.541 19.8216 21.8941 20.1856 21.8941 20.6353C21.8941 21.0842 21.541 21.4483 21.1046 21.4483ZM29.1228 21.7056H25.3008C24.612 21.7056 24.0542 21.13 24.0542 20.421C24.0542 19.7119 24.6125 19.1367 25.3008 19.1367H29.1228C29.8116 19.1367 30.3698 19.7119 30.3698 20.421C30.3698 21.13 29.8116 21.7056 29.1228 21.7056Z" fill="white"/>
</svg>
