<svg width="33" height="33" viewBox="0 0 33 33" fill="none" xmlns="http://www.w3.org/2000/svg">
<g clip-path="url(#clip0)">
<path d="M16.5003 16.1392C20.1693 16.1392 23.1439 12.5263 23.1439 8.06963C23.1439 3.61284 22.1673 0 16.5003 0C10.8332 0 9.85645 3.61284 9.85645 8.06963C9.85645 12.5263 12.8311 16.1392 16.5003 16.1392Z" fill="white"/>
<path d="M3.9515 28.4604C3.95037 28.1887 3.94924 28.3839 3.9515 28.4604V28.4604Z" fill="white"/>
<path d="M29.0483 28.6727C29.0519 28.5983 29.0496 28.1565 29.0483 28.6727V28.6727Z" fill="white"/>
<path d="M29.0342 28.1346C28.9112 20.3709 27.8972 18.1587 20.1382 16.7583C20.1382 16.7583 19.046 18.1501 16.5002 18.1501C13.9545 18.1501 12.8621 16.7583 12.8621 16.7583C5.18775 18.1434 4.11213 20.3228 3.97071 27.8824C3.95911 28.4997 3.95373 28.5321 3.95166 28.4604C3.95213 28.5947 3.9527 28.843 3.9527 29.2761C3.9527 29.2761 5.79994 33 16.5002 33C27.2003 33 29.0478 29.2761 29.0478 29.2761C29.0478 28.9979 29.048 28.8044 29.0483 28.6728C29.0462 28.7171 29.042 28.6312 29.0342 28.1346Z" fill="white"/>
</g>
<defs>
<clipPath id="clip0">
<rect width="33" height="33" fill="white"/>
</clipPath>
</defs>
</svg>
