<svg width="30" height="26" viewBox="0 0 30 26" fill="none" xmlns="http://www.w3.org/2000/svg">
<path d="M29.9996 14.3792C29.9996 13.7891 29.8664 13.2255 29.6258 12.7098C29.601 12.5787 29.5726 12.4479 29.5372 12.3151L26.9313 5.85697L26.9136 5.79887C26.0019 3.08406 24.7046 0.571442 21.4149 0.571442H8.83745C5.46674 0.571442 4.27564 3.14632 3.3439 5.78379L0.618101 12.2577C0.224039 12.889 0 13.6113 0 14.3792V16.3888C0 16.6994 0.0367255 17.0034 0.106558 17.2961C0.038669 17.473 0 17.6636 0 17.8645V23.8414C0 24.7179 0.710518 25.4285 1.58697 25.4285H4.88021C5.75619 25.4285 6.46671 24.7179 6.46671 23.8414V20.8525H23.721V23.8414C23.721 24.7179 24.4317 25.4285 25.3082 25.4285H28.4128C29.2896 25.4285 30 24.7179 30 23.8414V17.8638C30 17.6636 29.9609 17.4722 29.8936 17.2959C29.9631 17.0027 30 16.6991 30 16.3885V14.3792H29.9996V14.3792ZM5.27789 6.43218C6.31552 3.50466 7.14995 2.61098 8.83745 2.61098H21.4142C23.0893 2.61098 24.022 3.60773 24.9699 6.41958L26.8715 10.2732C26.2506 10.0433 25.5673 9.91568 24.8494 9.91568H5.15022C4.50384 9.91568 3.88614 10.0196 3.31622 10.2077L5.27789 6.43218ZM6.91144 17.1519H3.43672C2.81111 17.1519 2.30372 16.6441 2.30372 16.0185C2.30372 15.3928 2.81111 14.8853 3.43672 14.8853H6.91144C7.53731 14.8853 8.0447 15.3928 8.0447 16.0185C8.0447 16.6441 7.53698 17.1519 6.91144 17.1519ZM19.186 16.925H11.1037C10.7074 16.925 10.3864 16.6037 10.3864 16.2076C10.3864 15.8108 10.7074 15.4896 11.1037 15.4896H19.186C19.5828 15.4896 19.9038 15.8108 19.9038 16.2076C19.9038 16.6037 19.5828 16.925 19.186 16.925ZM26.4753 17.1519H23.0007C22.3746 17.1519 21.8674 16.6441 21.8674 16.0185C21.8674 15.3928 22.375 14.8853 23.0007 14.8853H26.4753C27.1014 14.8853 27.609 15.3928 27.609 16.0185C27.609 16.6441 27.1014 17.1519 26.4753 17.1519Z" fill="white"/>
</svg>
