<svg width="50" height="50" viewBox="0 0 50 50" fill="none" xmlns="http://www.w3.org/2000/svg">
<g clip-path="url(#clip0)">
<rect width="50" height="50" fill="white"/>
<path d="M46.148 31.4097C45.4602 31.4097 44.9028 31.9671 44.9028 32.655V43.7115C44.9003 45.774 43.2295 47.4453 41.167 47.4473H6.2263C4.16384 47.4453 2.49295 45.774 2.49052 43.7115V11.2613C2.49295 9.19933 4.16384 7.52795 6.2263 7.52552H17.2828C17.9706 7.52552 18.5281 6.96807 18.5281 6.28026C18.5281 5.59294 17.9706 5.035 17.2828 5.035H6.2263C2.78919 5.0389 0.00389143 7.82419 0 11.2613V43.712C0.00389143 47.1491 2.78919 49.9344 6.2263 49.9383H41.167C44.6041 49.9344 47.3894 47.1491 47.3933 43.712V32.655C47.3933 31.9671 46.8358 31.4097 46.148 31.4097Z" fill="#7F2BC1"/>
<path d="M46.9 1.83088C44.7116 -0.357567 41.1636 -0.357567 38.9751 1.83088L16.7589 24.0471C16.6067 24.1993 16.4967 24.3881 16.4393 24.5953L13.5179 35.1425C13.3977 35.575 13.5198 36.038 13.837 36.3557C14.1546 36.6728 14.6177 36.7949 15.0501 36.6753L25.5974 33.7533C25.8046 33.6959 25.9933 33.586 26.1456 33.4337L48.3613 11.217C50.5463 9.02711 50.5463 5.48202 48.3613 3.29211L46.9 1.83088ZM19.4722 24.8565L37.6545 6.67377L43.5184 12.5377L25.3357 30.7204L19.4722 24.8565ZM18.3009 27.2069L22.9857 31.8922L16.5055 33.6876L18.3009 27.2069ZM46.6004 9.45614L45.2797 10.7768L39.4154 4.91241L40.7365 3.59175C41.9521 2.37617 43.9231 2.37617 45.1387 3.59175L46.6004 5.05299C47.814 6.27003 47.814 8.23958 46.6004 9.45614Z" fill="#7F2BC1"/>
</g>
<defs>
<clipPath id="clip0">
<rect width="50" height="50" fill="white"/>
</clipPath>
</defs>
</svg>
