<svg width="204" height="266" viewBox="0 0 204 266" fill="none" xmlns="http://www.w3.org/2000/svg">
<path d="M102 130.091C131.575 130.091 155.552 100.97 155.552 65.0461C155.552 29.1217 147.68 0 102 0C56.3201 0 48.4465 29.1217 48.4465 65.0461C48.4465 100.97 72.4238 130.091 102 130.091Z" fill="#F5BA3D"/>
<path d="M0.850866 229.408C0.841743 227.218 0.83262 228.791 0.850866 229.408V229.408Z" fill="#F5BA3D"/>
<path d="M203.145 231.119C203.173 230.519 203.154 226.959 203.145 231.119V231.119Z" fill="#F5BA3D"/>
<path d="M203.031 226.782C202.039 164.202 193.866 146.37 131.323 135.082C131.323 135.082 122.519 146.301 101.999 146.301C81.4792 146.301 72.6739 135.082 72.6739 135.082C10.8137 146.247 2.14362 163.814 1.00362 224.749C0.910137 229.724 0.866818 229.986 0.850098 229.408C0.853898 230.491 0.858456 232.492 0.858456 235.983C0.858456 235.983 15.7484 266 101.999 266C188.249 266 203.14 235.983 203.14 235.983C203.14 233.74 203.142 232.181 203.144 231.12C203.127 231.477 203.094 230.785 203.031 226.782Z" fill="#F5BA3D"/>
</svg>
